<svg xmlns="http://www.w3.org/2000/svg" xmlns:xlink="http://www.w3.org/1999/xlink" width="16px" height="15px">
								
								<g filter="url(#Filter_1)">
								<path fill-rule="evenodd" fill="rgb(81, 176, 30)" d="M13.866,7.235 C13.607,5.721 12.892,4.344 11.802,3.254 C10.653,2.108 9.197,1.381 7.592,1.156 L7.755,-0.002 C9.613,0.257 11.296,1.096 12.626,2.427 C13.888,3.692 14.716,5.284 15.019,7.039 L13.866,7.235 ZM10.537,4.459 C11.296,5.222 11.796,6.181 11.977,7.238 L10.824,7.436 C10.684,6.617 10.300,5.874 9.713,5.287 C9.091,4.666 8.304,4.276 7.439,4.155 L7.601,2.996 C8.719,3.151 9.734,3.657 10.537,4.459 ZM4.909,8.182 C5.709,9.162 6.611,10.033 7.689,10.711 C7.920,10.854 8.176,10.960 8.417,11.092 C8.538,11.160 8.623,11.139 8.723,11.035 C9.088,10.661 9.460,10.293 9.831,9.924 C10.318,9.440 10.931,9.440 11.421,9.924 C12.017,10.516 12.614,11.110 13.207,11.707 C13.704,12.207 13.701,12.818 13.201,13.324 C12.864,13.665 12.505,13.989 12.186,14.345 C11.721,14.866 11.140,15.035 10.472,14.997 C9.500,14.944 8.607,14.623 7.745,14.205 C5.831,13.275 4.194,11.985 2.823,10.355 C1.808,9.150 0.971,7.834 0.422,6.355 C0.153,5.639 -0.038,4.906 0.022,4.129 C0.059,3.651 0.237,3.242 0.590,2.907 C0.971,2.546 1.330,2.168 1.705,1.800 C2.192,1.319 2.804,1.319 3.295,1.797 C3.598,2.093 3.894,2.396 4.194,2.696 C4.485,2.988 4.775,3.277 5.065,3.570 C5.578,4.085 5.578,4.684 5.069,5.197 C4.703,5.565 4.341,5.933 3.969,6.293 C3.873,6.390 3.863,6.468 3.913,6.586 C4.160,7.173 4.513,7.694 4.909,8.182 Z"></path>
								</g>
								</svg>