<svg xmlns="http://www.w3.org/2000/svg" xmlns:xlink="http://www.w3.org/1999/xlink" width="87px" height="71px">
												<path fill-rule="evenodd" fill="rgb(0, 0, 0)" d="M81.914,44.232 C78.808,44.232 76.822,42.720 76.822,38.742 C76.822,34.764 78.808,33.252 81.914,33.252 C85.017,33.252 87.003,34.764 87.003,38.742 C87.003,42.720 85.017,44.232 81.914,44.232 ZM82.818,36.685 C82.818,35.976 82.513,35.677 81.914,35.677 C81.312,35.677 81.007,35.976 81.007,36.685 L81.007,40.799 C81.007,41.508 81.312,41.808 81.914,41.808 C82.513,41.808 82.818,41.508 82.818,40.799 L82.818,36.685 ZM3.592,27.502 L83.095,27.502 L83.095,28.010 L3.592,28.010 L3.592,27.502 ZM56.069,8.992 L56.156,8.648 C64.259,10.812 71.772,15.087 77.892,21.006 L77.651,21.266 C71.576,15.387 64.113,11.144 56.069,8.992 ZM58.903,12.887 L59.572,13.133 L59.494,13.350 C59.104,13.207 59.216,13.248 58.825,13.104 L58.903,12.887 ZM61.652,13.389 L61.308,13.241 C61.473,12.839 61.708,12.611 62.130,12.795 C62.491,12.951 62.651,13.213 62.501,13.583 C62.234,14.227 61.332,14.237 61.017,14.966 L61.560,15.201 L61.812,14.907 L61.965,14.973 L61.725,15.552 C61.337,15.385 60.932,15.208 60.542,15.041 L60.595,14.912 C60.920,14.080 61.856,14.083 62.130,13.427 C62.200,13.256 62.183,13.092 62.040,13.031 C61.829,12.940 61.715,13.232 61.652,13.389 ZM63.931,16.673 C63.543,16.473 63.436,16.101 63.626,15.723 L64.208,14.547 C64.392,14.174 64.746,14.040 65.136,14.241 C65.524,14.443 65.655,14.764 65.444,15.189 L64.862,16.364 C64.651,16.792 64.322,16.874 63.931,16.673 ZM65.027,14.464 C64.794,14.344 64.634,14.549 64.549,14.725 L63.968,15.900 C63.880,16.076 63.815,16.329 64.043,16.448 C64.278,16.569 64.416,16.398 64.520,16.186 L65.102,15.010 C65.206,14.802 65.260,14.584 65.027,14.464 ZM66.766,18.268 C66.390,18.039 66.310,17.661 66.523,17.298 L67.185,16.165 C67.393,15.806 67.757,15.698 68.133,15.926 C68.506,16.155 68.615,16.485 68.378,16.894 L67.716,18.025 C67.476,18.438 67.139,18.496 66.766,18.268 ZM68.007,16.140 C67.786,16.005 67.612,16.199 67.515,16.367 L66.853,17.499 C66.753,17.667 66.671,17.915 66.891,18.052 C67.117,18.188 67.267,18.029 67.386,17.825 L68.048,16.693 C68.164,16.491 68.232,16.278 68.007,16.140 ZM69.937,18.198 L70.184,17.836 C70.371,17.561 70.705,17.610 70.994,17.815 C71.282,18.020 71.433,18.322 71.248,18.594 L71.001,18.956 C70.916,19.080 70.783,19.137 70.637,19.140 C70.744,19.307 70.739,19.506 70.628,19.670 L70.409,19.986 C70.172,20.336 69.803,20.298 69.464,20.057 C69.127,19.816 68.960,19.494 69.207,19.130 L69.423,18.812 C69.517,18.674 69.726,18.578 69.895,18.610 C69.832,18.475 69.852,18.322 69.937,18.198 ZM70.696,18.743 L70.943,18.377 C71.040,18.239 70.989,18.106 70.856,18.012 C70.729,17.920 70.586,17.911 70.490,18.054 L70.240,18.420 C70.138,18.572 70.191,18.697 70.325,18.792 C70.458,18.887 70.594,18.897 70.696,18.743 ZM69.736,19.036 L69.520,19.351 C69.384,19.550 69.437,19.729 69.600,19.846 C69.798,19.987 69.973,19.928 70.089,19.757 L70.305,19.441 C70.434,19.252 70.373,19.085 70.206,18.966 C70.038,18.847 69.852,18.864 69.736,19.036 ZM72.366,20.415 L72.924,20.866 L72.783,21.047 C72.458,20.783 72.550,20.858 72.225,20.594 L72.366,20.415 ZM73.641,25.603 L73.401,25.864 C68.077,20.711 61.541,16.993 54.498,15.111 L54.585,14.765 C61.686,16.664 68.274,20.411 73.641,25.603 ZM53.370,12.460 L51.581,12.460 C50.989,12.460 50.509,11.972 50.509,11.367 C50.509,10.762 50.989,10.273 51.581,10.273 L53.370,10.273 C53.962,10.273 54.442,10.762 54.442,11.367 C54.442,11.972 53.962,12.460 53.370,12.460 ZM49.927,6.189 C49.508,6.618 48.827,6.618 48.407,6.189 C47.988,5.761 47.988,5.064 48.407,4.635 L49.675,3.342 C50.094,2.913 50.773,2.913 51.193,3.342 C51.612,3.770 51.612,4.465 51.193,4.894 L49.927,6.189 ZM49.927,16.544 L51.193,17.838 C51.612,18.267 51.612,18.963 51.193,19.392 C50.773,19.821 50.094,19.821 49.675,19.392 L48.407,18.097 C47.988,17.670 47.988,16.973 48.407,16.544 C48.827,16.116 49.508,16.116 49.927,16.544 ZM45.490,21.985 C45.490,22.790 44.846,23.448 44.060,23.448 L42.627,23.448 C41.839,23.448 41.194,22.790 41.194,21.985 L41.194,20.520 L45.490,20.520 L45.490,21.985 ZM48.051,14.708 C47.224,15.922 45.490,16.671 45.490,18.323 L45.490,19.055 L41.194,19.055 L41.194,18.323 C41.194,16.671 39.463,15.922 38.636,14.708 C37.972,13.731 37.613,12.552 37.613,11.367 C37.613,8.133 40.178,5.509 43.342,5.509 C46.509,5.509 49.074,8.133 49.074,11.367 C49.074,12.552 48.715,13.731 48.051,14.708 ZM43.342,4.044 C42.748,4.044 42.268,3.552 42.268,2.945 L42.268,1.116 C42.268,0.508 42.748,0.018 43.342,0.018 C43.936,0.018 44.416,0.508 44.416,1.116 L44.416,2.945 C44.416,3.552 43.936,4.044 43.342,4.044 ZM36.757,6.189 L35.492,4.894 C35.072,4.465 35.072,3.770 35.492,3.342 C35.914,2.913 36.592,2.913 37.012,3.342 L38.278,4.635 C38.697,5.064 38.697,5.761 38.278,6.189 C37.858,6.618 37.179,6.618 36.757,6.189 ZM38.278,16.544 C38.697,16.973 38.697,17.670 38.278,18.097 L37.012,19.392 C36.592,19.821 35.914,19.821 35.492,19.392 C35.072,18.963 35.072,18.267 35.492,17.838 L36.757,16.544 C37.179,16.116 37.858,16.116 38.278,16.544 ZM36.175,11.367 C36.175,11.972 35.695,12.460 35.106,12.460 L33.314,12.460 C32.723,12.460 32.243,11.972 32.243,11.367 C32.243,10.762 32.723,10.273 33.314,10.273 L35.106,10.273 C35.695,10.273 36.175,10.762 36.175,11.367 ZM13.283,25.864 L13.043,25.603 C18.411,20.411 25.001,16.664 32.102,14.765 L32.189,15.111 C25.146,16.993 18.607,20.711 13.283,25.864 ZM27.229,13.335 L27.154,13.118 L27.823,12.874 L27.898,13.092 C27.510,13.233 27.622,13.194 27.229,13.335 ZM23.551,13.413 L23.507,13.313 L24.220,12.998 C24.627,12.817 24.974,12.869 25.168,13.324 L25.660,14.487 C25.842,14.917 25.646,15.252 25.248,15.427 L24.516,15.751 L24.475,15.651 L24.579,15.481 L23.723,13.460 L23.551,13.413 ZM24.875,15.181 C24.901,15.241 24.897,15.278 24.846,15.321 L24.858,15.341 L25.156,15.208 C25.406,15.095 25.406,14.877 25.309,14.644 L24.814,13.479 C24.717,13.251 24.562,13.102 24.310,13.209 L24.082,13.310 L24.875,15.181 ZM20.797,15.428 L20.508,14.823 L21.847,14.118 L22.162,14.709 L22.004,14.792 L21.696,14.465 L21.456,14.592 C21.781,15.233 22.103,15.875 22.428,16.516 L22.625,16.544 L22.683,16.658 C22.492,16.759 22.237,16.894 22.050,16.993 L21.992,16.879 L22.084,16.698 C21.759,16.056 21.434,15.414 21.112,14.774 L20.865,14.904 L20.954,15.345 L20.797,15.428 ZM19.458,17.499 C19.209,17.075 18.510,17.742 18.176,17.175 L18.011,16.900 C17.812,16.561 17.979,16.284 18.236,16.126 C18.363,16.048 18.508,15.993 18.683,16.049 L18.695,16.041 L18.649,15.903 L18.864,15.769 C18.981,15.969 19.102,16.173 19.223,16.377 L18.898,16.579 L18.799,16.413 C18.704,16.252 18.566,16.217 18.418,16.309 C18.268,16.401 18.249,16.542 18.341,16.697 L18.503,16.972 C18.733,17.364 19.439,16.691 19.793,17.288 L19.955,17.566 C20.169,17.925 19.958,18.241 19.657,18.427 C19.354,18.614 19.000,18.625 18.797,18.279 L18.692,18.101 L19.049,17.880 L19.155,18.061 C19.272,18.255 19.403,18.285 19.543,18.198 C19.710,18.094 19.718,17.935 19.621,17.774 L19.458,17.499 ZM15.097,18.411 L15.041,18.330 C15.409,18.065 15.747,17.822 16.115,17.558 L16.450,18.043 L16.297,18.151 L16.006,17.909 L15.594,18.204 C15.778,18.473 15.965,18.745 16.151,19.017 L16.442,18.809 L16.403,18.582 L16.496,18.518 C16.600,18.669 16.750,18.888 16.852,19.039 L16.762,19.104 L16.571,18.997 L16.282,19.205 C16.440,19.433 16.593,19.659 16.750,19.888 C16.784,19.938 16.791,19.974 16.753,20.029 L16.765,20.044 C16.934,19.920 17.104,19.799 17.276,19.675 L17.177,19.306 L17.308,19.210 L17.642,19.695 C17.264,19.966 16.886,20.238 16.505,20.510 L16.445,20.421 L16.517,20.230 C16.100,19.622 15.681,19.013 15.266,18.408 L15.097,18.411 ZM13.875,21.073 L13.734,20.893 L14.289,20.441 L14.430,20.622 C14.107,20.884 14.200,20.810 13.875,21.073 ZM9.035,21.266 L8.793,21.006 C14.912,15.087 22.428,10.812 30.529,8.648 L30.618,8.992 C22.574,11.143 15.109,15.387 9.035,21.266 ZM5.209,35.677 L4.528,35.677 L4.528,37.748 L6.528,37.748 L6.528,35.677 L5.847,35.677 L5.847,33.443 L11.057,33.443 L11.057,35.677 L10.257,35.677 L10.257,41.808 L11.057,41.808 L11.057,44.041 L5.847,44.041 L5.847,41.808 L6.528,41.808 L6.528,39.560 L4.528,39.560 L4.528,41.808 L5.209,41.808 L5.209,44.041 L-0.003,44.041 L-0.003,41.808 L0.797,41.808 L0.797,35.677 L-0.003,35.677 L-0.003,33.443 L5.209,33.443 L5.209,35.677 ZM18.282,41.808 L18.282,44.041 L12.953,44.041 L12.953,41.808 L13.753,41.808 L13.753,35.677 L12.953,35.677 L12.953,33.443 L18.282,33.443 L18.282,35.677 L17.482,35.677 L17.482,41.808 L18.282,41.808 ZM20.232,35.677 L20.232,33.443 L26.213,33.443 C28.398,33.443 29.745,34.315 29.745,36.644 C29.745,38.974 28.398,39.845 26.213,39.845 L24.761,39.845 L24.761,41.808 L26.041,41.808 L26.041,44.041 L20.232,44.041 L20.232,41.808 L21.029,41.808 L21.029,35.677 L20.232,35.677 ZM24.761,37.912 L25.214,37.912 C25.706,37.912 25.988,37.651 25.988,37.039 L25.988,36.548 C25.988,35.936 25.721,35.677 25.214,35.677 L24.761,35.677 L24.761,37.912 ZM36.490,36.985 C38.556,37.666 40.273,38.388 40.273,40.731 C40.273,43.060 38.728,44.232 35.877,44.232 C33.319,44.232 31.707,43.496 31.707,43.496 L31.707,40.799 L34.638,40.799 C34.638,41.344 34.798,41.602 35.463,41.602 C36.049,41.602 36.277,41.411 36.277,41.057 C36.277,40.813 36.129,40.622 35.504,40.390 C32.866,39.382 31.586,38.660 31.586,36.536 C31.586,34.506 32.718,33.252 36.129,33.252 C38.702,33.252 40.021,34.125 40.021,34.125 L40.021,36.563 L37.223,36.563 C37.223,36.045 36.903,35.882 36.490,35.882 C35.904,35.882 35.664,36.018 35.664,36.400 C35.664,36.712 35.943,36.808 36.490,36.985 ZM42.035,36.739 L42.035,33.443 L52.056,33.443 L52.056,36.739 L49.765,36.739 L49.765,35.677 L48.911,35.677 L48.911,41.808 L49.845,41.808 L49.845,44.041 L44.249,44.041 L44.249,41.808 L45.180,41.808 L45.180,35.677 L44.327,35.677 L44.327,36.739 L42.035,36.739 ZM62.947,39.654 L62.947,44.041 L53.818,44.041 L53.818,41.808 L54.616,41.808 L54.616,35.677 L53.818,35.677 L53.818,33.443 L62.947,33.443 L62.947,37.557 L59.960,37.557 L59.960,35.677 L58.347,35.677 L58.347,37.830 L59.521,37.830 L59.521,39.382 L58.347,39.382 L58.347,41.808 L59.960,41.808 L59.960,39.654 L62.947,39.654 ZM74.686,40.758 L74.686,41.808 L75.314,41.808 L75.314,44.041 L71.088,44.041 L71.088,40.840 C71.088,39.751 70.637,39.572 69.532,39.572 L69.532,41.808 L70.409,41.808 L70.409,44.041 L65.000,44.041 L65.000,41.808 L65.801,41.808 L65.801,35.677 L65.000,35.677 L65.000,33.443 L71.248,33.443 C73.435,33.443 74.781,34.261 74.781,36.509 C74.781,37.706 74.301,38.660 73.397,39.015 L73.409,39.151 C74.262,39.287 74.686,39.805 74.686,40.758 ZM71.023,36.548 C71.023,35.936 70.756,35.677 70.250,35.677 L69.532,35.677 L69.532,37.912 L70.250,37.912 C70.756,37.912 71.023,37.651 71.023,37.039 L71.023,36.548 ZM83.095,49.486 L3.592,49.486 L3.592,48.981 L83.095,48.981 L83.095,49.486 ZM67.677,59.911 L67.558,59.715 L68.164,59.336 L68.283,59.532 C67.929,59.753 68.031,59.690 67.677,59.911 ZM64.595,60.781 L64.297,60.181 L65.623,59.452 L65.948,60.037 L65.791,60.124 L65.478,59.802 L65.240,59.933 C65.575,60.568 65.910,61.205 66.244,61.842 L66.443,61.865 L66.504,61.978 C66.314,62.082 66.060,62.222 65.873,62.325 L65.815,62.211 L65.905,62.029 C65.570,61.393 65.236,60.756 64.901,60.120 L64.654,60.255 L64.753,60.695 L64.595,60.781 ZM63.223,62.801 L63.572,62.640 L63.631,62.771 C63.820,63.197 63.614,63.516 63.235,63.689 C62.860,63.863 62.479,63.792 62.287,63.355 C62.224,63.210 61.824,62.304 61.761,62.159 C61.579,61.749 61.725,61.405 62.122,61.222 C62.268,61.155 62.435,61.120 62.586,61.187 L62.595,61.182 L62.566,61.039 L62.799,60.932 L63.095,61.609 L62.743,61.770 L62.717,61.703 C62.619,61.487 62.476,61.336 62.234,61.445 C62.074,61.517 61.977,61.694 62.113,61.998 C62.176,62.143 62.573,63.049 62.637,63.194 C62.763,63.480 62.930,63.557 63.134,63.462 C63.378,63.351 63.386,63.173 63.279,62.928 L63.223,62.801 ZM59.991,65.041 C59.630,65.175 59.264,65.076 59.102,64.620 L58.510,62.968 L58.321,62.919 L58.282,62.816 L58.954,62.565 L58.990,62.668 L58.876,62.832 L59.465,64.484 C59.572,64.779 59.742,64.848 59.955,64.769 C60.190,64.681 60.258,64.519 60.151,64.221 L59.562,62.568 L59.397,62.526 L59.356,62.414 L59.868,62.223 L59.907,62.335 L59.810,62.476 L60.401,64.136 C60.571,64.611 60.353,64.903 59.991,65.041 ZM55.188,63.900 L55.159,63.795 L55.906,63.577 C56.333,63.453 56.670,63.551 56.803,64.025 L57.143,65.246 C57.269,65.696 57.031,66.000 56.617,66.122 L55.848,66.345 L55.819,66.241 L55.945,66.086 L55.353,63.969 L55.188,63.900 ZM56.277,65.828 C56.294,65.890 56.284,65.929 56.231,65.963 L56.241,65.984 L56.551,65.894 C56.813,65.813 56.842,65.597 56.774,65.354 L56.435,64.134 C56.367,63.894 56.231,63.725 55.967,63.798 L55.729,63.868 L56.277,65.828 ZM53.559,64.880 L53.818,66.168 C53.903,66.585 53.675,66.919 53.232,67.013 C52.791,67.106 52.454,66.888 52.369,66.474 L52.109,65.188 C52.024,64.774 52.250,64.437 52.691,64.342 C53.137,64.248 53.474,64.463 53.559,64.880 ZM52.485,65.108 L52.744,66.395 C52.803,66.683 52.943,66.816 53.181,66.765 C53.423,66.714 53.496,66.486 53.448,66.246 L53.186,64.960 C53.137,64.715 52.985,64.540 52.742,64.590 C52.502,64.641 52.424,64.816 52.485,65.108 ZM48.700,65.158 L48.686,65.049 L49.428,64.947 C49.825,64.893 50.167,65.002 50.228,65.459 L50.271,65.800 C50.315,66.122 50.162,66.327 49.932,66.407 C50.049,66.452 50.107,66.517 50.160,66.628 L50.398,67.087 C50.446,67.183 50.533,67.320 50.645,67.278 L50.664,67.425 C50.596,67.473 50.485,67.499 50.405,67.510 C50.174,67.542 50.128,67.376 50.029,67.188 L49.787,66.732 C49.687,66.541 49.615,66.496 49.399,66.526 C49.428,66.763 49.479,67.146 49.510,67.385 L49.687,67.475 L49.702,67.584 C49.488,67.613 49.217,67.650 49.006,67.679 L48.991,67.571 L49.137,67.436 C49.042,66.709 48.943,65.963 48.848,65.237 L48.700,65.158 ZM49.365,66.310 L49.600,66.278 C49.845,66.243 49.922,66.092 49.891,65.852 L49.847,65.511 C49.816,65.272 49.714,65.144 49.459,65.179 L49.222,65.212 C49.275,65.620 49.311,65.901 49.365,66.310 ZM45.531,65.421 L45.524,65.312 L46.274,65.264 C46.674,65.240 47.010,65.374 47.037,65.834 L47.066,66.307 C47.095,66.779 46.775,66.924 46.368,66.950 L46.140,66.963 C46.155,67.205 46.169,67.463 46.184,67.703 L46.354,67.807 L46.358,67.916 C46.150,67.929 45.871,67.946 45.658,67.961 L45.650,67.851 L45.810,67.727 C45.767,66.994 45.721,66.243 45.677,65.510 L45.531,65.421 ZM46.126,66.744 L46.363,66.729 C46.610,66.714 46.698,66.573 46.683,66.330 L46.654,65.859 C46.640,65.616 46.543,65.482 46.290,65.499 L46.053,65.513 C46.077,65.925 46.101,66.337 46.126,66.744 ZM39.865,67.888 C39.686,67.877 39.475,67.863 39.293,67.852 L39.301,67.735 L39.463,67.646 C39.507,66.907 39.550,66.162 39.596,65.423 L39.453,65.315 L39.461,65.205 C39.657,65.217 39.807,65.227 40.004,65.240 C40.142,65.248 40.185,65.286 40.210,65.430 C40.302,66.184 40.355,66.687 40.394,67.433 L40.401,67.433 L40.850,65.460 C40.889,65.322 40.937,65.299 41.078,65.312 C41.289,65.324 41.403,65.328 41.614,65.341 L41.606,65.450 L41.458,65.540 C41.412,66.279 41.369,67.017 41.325,67.755 L41.480,67.879 L41.473,67.988 C41.262,67.976 40.978,67.959 40.767,67.945 L40.775,67.835 L40.944,67.732 C40.981,67.139 41.015,66.546 41.051,65.953 L41.085,65.577 L41.071,65.577 L40.523,67.892 L40.215,67.872 C40.137,67.867 40.103,67.831 40.098,67.758 C40.021,66.999 39.945,66.282 39.853,65.526 L39.834,65.525 L39.824,66.013 C39.790,66.564 39.759,67.111 39.725,67.664 L39.873,67.770 L39.865,67.888 ZM37.254,64.947 L37.792,65.024 L37.776,65.141 L37.625,65.217 L37.385,66.967 C37.315,67.469 36.990,67.621 36.607,67.571 C36.226,67.516 35.948,67.252 36.015,66.771 L36.253,65.029 L36.107,64.894 L36.122,64.786 L36.828,64.887 L36.813,64.994 L36.636,65.083 L36.398,66.826 C36.357,67.138 36.476,67.281 36.699,67.312 C36.949,67.349 37.082,67.237 37.126,66.923 L37.363,65.180 L37.237,65.064 L37.254,64.947 ZM33.935,67.074 C33.729,67.032 33.458,66.975 33.247,66.930 L33.268,66.824 L33.455,66.747 C33.598,66.022 33.744,65.300 33.887,64.575 L33.770,64.452 L33.790,64.344 L34.430,64.477 L34.410,64.585 L34.253,64.652 C34.110,65.376 33.964,66.097 33.819,66.824 L33.957,66.967 L33.935,67.074 ZM29.852,66.062 C29.678,66.013 29.474,65.955 29.299,65.905 L29.331,65.792 L29.506,65.740 C29.702,65.026 29.896,64.310 30.092,63.596 L29.976,63.460 L30.002,63.356 C30.192,63.409 30.337,63.450 30.526,63.505 C30.660,63.542 30.696,63.589 30.691,63.735 C30.628,64.491 30.575,64.993 30.461,65.730 L30.468,65.733 L31.309,63.901 C31.375,63.775 31.428,63.762 31.564,63.805 C31.765,63.862 31.877,63.890 32.080,63.948 L32.051,64.054 L31.886,64.108 C31.690,64.822 31.496,65.532 31.302,66.246 L31.428,66.400 L31.401,66.505 C31.198,66.447 30.924,66.369 30.720,66.310 L30.749,66.205 L30.936,66.141 C31.091,65.569 31.249,64.997 31.404,64.427 L31.515,64.065 L31.501,64.061 L30.492,66.206 L30.197,66.122 C30.121,66.100 30.095,66.058 30.104,65.986 C30.182,65.227 30.257,64.511 30.323,63.753 L30.303,63.747 L30.194,64.221 C30.049,64.754 29.903,65.282 29.760,65.812 L29.881,65.950 L29.852,66.062 ZM27.547,64.685 L27.699,64.741 L27.503,65.299 C27.069,65.138 26.632,64.977 26.196,64.816 L26.232,64.712 L26.426,64.665 C26.674,63.963 26.923,63.264 27.168,62.568 L27.069,62.426 L27.103,62.334 C27.527,62.491 27.915,62.635 28.339,62.792 L28.143,63.350 L27.968,63.285 L27.995,62.901 L27.522,62.726 C27.413,63.035 27.302,63.349 27.190,63.661 L27.525,63.785 L27.685,63.622 L27.789,63.661 C27.726,63.834 27.636,64.087 27.576,64.261 L27.471,64.223 L27.447,64.000 L27.113,63.876 C27.020,64.140 26.928,64.399 26.836,64.662 C26.814,64.719 26.790,64.746 26.725,64.746 L26.717,64.764 C26.914,64.837 27.110,64.909 27.306,64.982 L27.547,64.685 ZM23.641,63.731 C23.444,63.642 23.195,63.528 22.998,63.439 L23.042,63.339 L23.236,63.303 C23.529,62.632 23.827,61.944 24.121,61.274 L24.034,61.128 L24.077,61.026 L24.763,61.338 C25.129,61.506 25.365,61.782 25.180,62.203 L25.044,62.518 C24.913,62.816 24.678,62.907 24.441,62.853 C24.518,62.954 24.533,63.040 24.523,63.165 L24.489,63.683 C24.482,63.791 24.484,63.953 24.603,63.978 L24.542,64.114 C24.460,64.117 24.351,64.080 24.276,64.046 C24.065,63.948 24.111,63.785 24.123,63.570 L24.150,63.052 C24.164,62.836 24.126,62.759 23.927,62.668 C23.830,62.885 23.677,63.238 23.580,63.460 L23.684,63.631 L23.641,63.731 ZM24.225,62.565 C24.453,62.667 24.596,62.580 24.693,62.360 L24.829,62.045 C24.926,61.823 24.904,61.661 24.671,61.554 L24.450,61.454 C24.286,61.831 24.174,62.089 24.009,62.466 L24.225,62.565 ZM20.625,62.221 C20.438,62.119 20.193,61.987 20.004,61.884 L20.052,61.787 L20.251,61.767 C20.588,61.118 20.932,60.454 21.270,59.805 L21.189,59.651 L21.240,59.554 L21.905,59.915 C22.256,60.105 22.477,60.400 22.264,60.808 L22.048,61.224 C21.832,61.643 21.483,61.596 21.124,61.400 L20.920,61.291 C20.811,61.505 20.692,61.731 20.581,61.946 L20.673,62.124 L20.625,62.221 ZM21.231,61.209 C21.449,61.329 21.597,61.254 21.708,61.041 L21.924,60.623 C22.036,60.409 22.021,60.243 21.798,60.124 L21.587,60.008 C21.398,60.372 21.209,60.736 21.022,61.097 L21.231,61.209 ZM19.010,59.912 C18.656,59.690 18.758,59.755 18.404,59.533 L18.520,59.336 L19.126,59.715 L19.010,59.912 ZM26.882,54.552 L29.952,54.552 L29.952,54.808 L26.882,54.808 L26.882,54.552 ZM33.142,55.476 L32.970,55.886 L32.529,55.886 L33.329,53.987 L33.731,53.987 L34.534,55.886 L34.093,55.886 L33.921,55.476 L33.142,55.476 ZM33.533,54.552 L33.300,55.104 L33.763,55.104 L33.533,54.552 ZM35.707,55.886 L35.707,53.987 L36.268,53.987 L36.745,55.031 L37.228,53.987 L37.785,53.987 L37.785,55.886 L37.371,55.886 L37.371,54.691 L36.869,55.728 L36.622,55.728 L36.122,54.691 L36.122,55.886 L35.707,55.886 ZM38.280,58.808 C38.280,58.939 38.236,59.057 38.146,59.157 C38.045,59.276 37.865,59.335 37.611,59.335 L36.799,59.335 L36.799,57.437 L37.521,57.437 C37.645,57.437 37.754,57.452 37.846,57.483 C37.936,57.514 38.006,57.555 38.052,57.608 C38.134,57.705 38.175,57.816 38.175,57.939 C38.175,58.087 38.130,58.198 38.035,58.270 C38.003,58.295 37.982,58.312 37.969,58.317 C37.958,58.325 37.936,58.334 37.902,58.349 C38.018,58.374 38.110,58.427 38.178,58.508 C38.246,58.589 38.280,58.689 38.280,58.808 ZM37.671,57.836 C37.620,57.809 37.533,57.795 37.412,57.795 L37.213,57.795 L37.213,58.206 L37.409,58.206 C37.523,58.206 37.608,58.193 37.664,58.167 C37.720,58.141 37.749,58.087 37.749,58.002 C37.749,57.918 37.722,57.864 37.671,57.836 ZM37.759,58.581 C37.696,58.553 37.594,58.539 37.456,58.539 L37.213,58.539 L37.213,58.977 L37.497,58.977 C37.616,58.977 37.703,58.962 37.763,58.932 C37.822,58.902 37.853,58.843 37.853,58.755 C37.853,58.667 37.819,58.610 37.759,58.581 ZM40.569,55.511 L40.569,55.886 L39.201,55.886 L39.201,53.987 L40.540,53.987 L40.540,54.365 L39.613,54.365 L39.613,54.756 L40.447,54.756 L40.447,55.117 L39.613,55.117 L39.613,55.511 L40.569,55.511 ZM40.699,59.335 L40.287,58.729 L40.001,58.729 L40.001,59.335 L39.587,59.335 L39.587,57.437 L40.290,57.437 C40.578,57.437 40.784,57.487 40.908,57.586 C41.032,57.685 41.092,57.846 41.092,58.067 C41.092,58.371 40.976,58.567 40.738,58.657 L41.209,59.335 L40.699,59.335 ZM40.590,57.857 C40.537,57.819 40.445,57.800 40.312,57.800 L40.001,57.800 L40.001,58.362 L40.304,58.362 C40.445,58.362 40.542,58.340 40.593,58.292 C40.644,58.245 40.670,58.171 40.670,58.068 C40.670,57.965 40.644,57.896 40.590,57.857 ZM43.798,59.335 L43.626,58.924 L42.848,58.924 L42.675,59.335 L42.234,59.335 L43.037,57.437 L43.439,57.437 L44.239,59.335 L43.798,59.335 ZM43.238,58.002 L43.005,58.553 L43.471,58.553 L43.238,58.002 ZM43.010,55.886 L42.598,55.281 L42.309,55.281 L42.309,55.886 L41.897,55.886 L41.897,53.987 L42.600,53.987 C42.889,53.987 43.095,54.038 43.219,54.137 C43.342,54.238 43.403,54.396 43.403,54.618 C43.403,54.922 43.284,55.117 43.049,55.207 L43.519,55.886 L43.010,55.886 ZM42.901,54.409 C42.848,54.371 42.756,54.352 42.622,54.352 L42.309,54.352 L42.309,54.914 L42.615,54.914 C42.756,54.914 42.852,54.889 42.903,54.842 C42.954,54.795 42.981,54.721 42.981,54.619 C42.981,54.518 42.954,54.447 42.901,54.409 ZM45.199,53.987 L45.199,55.886 L44.787,55.886 L44.787,53.987 L45.199,53.987 ZM47.478,53.945 C47.784,53.945 48.039,54.063 48.245,54.300 L47.988,54.599 C47.857,54.432 47.692,54.349 47.498,54.349 C47.343,54.349 47.209,54.401 47.098,54.505 C46.989,54.609 46.933,54.749 46.933,54.927 C46.933,55.103 46.984,55.244 47.091,55.350 C47.192,55.457 47.321,55.511 47.469,55.511 C47.672,55.511 47.840,55.428 47.968,55.264 L48.235,55.544 C48.024,55.787 47.774,55.908 47.488,55.908 C47.202,55.908 46.967,55.815 46.783,55.630 C46.596,55.446 46.504,55.213 46.504,54.932 C46.504,54.650 46.598,54.416 46.787,54.228 C46.977,54.039 47.207,53.945 47.478,53.945 ZM45.413,59.335 L45.413,57.437 L45.801,57.437 L46.712,58.659 L46.712,57.437 L47.127,57.437 L47.127,59.335 L46.712,59.335 L45.827,58.146 L45.827,59.335 L45.413,59.335 ZM50.228,58.377 C50.228,58.672 50.141,58.904 49.968,59.077 C49.796,59.249 49.532,59.335 49.178,59.335 L48.543,59.335 L48.543,57.437 L49.200,57.437 C49.530,57.437 49.784,57.519 49.961,57.685 C50.138,57.851 50.228,58.082 50.228,58.377 ZM49.656,57.957 C49.554,57.856 49.399,57.807 49.188,57.807 L48.957,57.807 L48.957,58.959 L49.219,58.959 C49.408,58.959 49.554,58.911 49.656,58.813 C49.758,58.716 49.811,58.574 49.811,58.386 C49.811,58.201 49.758,58.057 49.656,57.957 ZM50.468,53.987 L51.271,55.886 L50.829,55.886 L50.655,55.476 L49.879,55.476 L49.704,55.886 L49.263,55.886 L50.065,53.987 L50.468,53.987 ZM50.499,55.104 L50.267,54.552 L50.034,55.104 L50.499,55.104 ZM54.156,53.987 L54.156,55.886 L53.743,55.886 L52.856,54.696 L52.856,55.886 L52.444,55.886 L52.444,53.987 L52.832,53.987 L53.743,55.209 L53.743,53.987 L54.156,53.987 ZM56.735,54.552 L59.802,54.552 L59.802,54.808 L56.735,54.808 L56.735,54.552 ZM73.401,51.125 L73.641,51.385 C69.612,55.278 64.772,58.439 59.650,60.521 C54.473,62.630 48.994,63.701 43.367,63.701 C43.352,63.701 43.335,63.701 43.318,63.701 C37.688,63.701 32.211,62.630 27.035,60.521 C21.912,58.439 17.073,55.278 13.046,51.385 L13.283,51.126 C17.281,54.989 22.082,58.121 27.166,60.188 C32.301,62.282 37.734,63.344 43.318,63.344 C43.335,63.344 43.352,63.344 43.367,63.344 C48.950,63.344 54.384,62.282 59.519,60.188 C64.603,58.123 69.403,54.989 73.401,51.125 ZM24.877,66.066 C30.657,68.423 37.031,69.669 43.311,69.669 C43.333,69.670 43.352,69.669 43.376,69.669 C49.653,69.669 56.027,68.423 61.807,66.065 C67.612,63.708 73.091,60.131 77.651,55.725 L77.892,55.984 C73.300,60.421 67.781,64.023 61.938,66.397 C56.115,68.771 49.697,70.026 43.376,70.026 C43.352,70.026 43.333,70.026 43.311,70.026 C36.985,70.026 30.570,68.771 24.749,66.398 C18.903,64.023 13.385,60.420 8.795,55.983 L9.035,55.723 C13.594,60.130 19.073,63.707 24.877,66.066 Z"></path>
												</svg>