<svg xmlns="http://www.w3.org/2000/svg" xmlns:xlink="http://www.w3.org/1999/xlink" width="89px" height="72px">
												<path fill-rule="evenodd" fill="rgb(0, 0, 0)" d="M88.857,36.242 L81.481,49.171 L81.342,49.417 L81.056,49.417 L77.143,49.417 C74.470,55.809 69.944,61.244 64.235,65.064 C58.603,68.836 51.815,71.036 44.510,71.036 C37.204,71.036 30.416,68.836 24.781,65.067 C19.072,61.244 14.549,55.809 11.876,49.417 L7.952,49.417 L7.666,49.417 L7.524,49.171 L0.148,36.242 L0.012,36.003 L0.148,35.763 L7.524,22.834 L7.666,22.587 L7.952,22.587 L11.876,22.587 C14.549,16.195 19.072,10.760 24.781,6.940 C30.416,3.170 37.204,0.969 44.510,0.969 C51.815,0.969 58.603,3.170 64.235,6.940 C69.944,10.761 74.470,16.197 77.143,22.587 L81.056,22.587 L81.342,22.587 L81.481,22.834 L88.857,35.763 L88.994,36.003 L88.857,36.242 ZM25.332,64.259 C30.806,67.923 37.406,70.062 44.510,70.062 C51.614,70.062 58.210,67.923 63.687,64.259 C69.129,60.616 73.464,55.468 76.080,49.417 L64.061,49.417 C61.900,52.510 59.011,55.066 55.644,56.841 C52.319,58.591 48.532,59.583 44.510,59.583 C40.487,59.583 36.697,58.591 33.375,56.841 C30.005,55.066 27.119,52.510 24.958,49.417 L12.939,49.417 C15.555,55.468 19.887,60.617 25.332,64.259 ZM62.854,49.417 L57.818,49.417 C54.395,52.764 49.698,54.829 44.510,54.829 C39.327,54.829 34.624,52.764 31.198,49.417 L26.163,49.417 C28.187,52.134 30.809,54.386 33.833,55.982 C37.019,57.659 40.651,58.609 44.510,58.609 C48.365,58.609 51.997,57.659 55.183,55.982 C58.210,54.386 60.832,52.134 62.854,49.417 ZM63.687,7.746 C58.210,4.081 51.614,1.942 44.510,1.942 C37.406,1.942 30.806,4.081 25.332,7.745 C19.887,11.388 15.555,16.536 12.939,22.587 L24.958,22.587 C27.119,19.494 30.005,16.938 33.375,15.163 C36.697,13.414 40.487,12.421 44.510,12.421 C48.532,12.421 52.319,13.414 55.644,15.165 C59.011,16.940 61.900,19.495 64.061,22.587 L76.080,22.587 C73.464,16.536 69.129,11.389 63.687,7.746 ZM26.163,22.587 L31.198,22.587 C34.624,19.241 39.327,17.176 44.510,17.176 C49.698,17.176 54.395,19.241 57.818,22.587 L62.854,22.587 C60.832,19.871 58.210,17.619 55.183,16.025 C51.997,14.348 48.365,13.396 44.510,13.396 C40.651,13.396 37.019,14.346 33.833,16.024 C30.809,17.619 28.187,19.869 26.163,22.587 ZM80.773,23.561 L77.541,23.561 L63.543,23.561 L44.510,23.561 L25.476,23.561 L11.478,23.561 L8.236,23.561 L1.137,36.003 L8.236,48.444 L11.478,48.444 L12.203,48.444 L25.476,48.444 L44.510,48.444 L63.543,48.444 L77.541,48.444 L80.773,48.444 L87.868,36.003 L80.773,23.561 ZM82.705,35.267 C83.116,35.267 83.446,35.597 83.446,36.003 C83.446,36.409 83.116,36.738 82.705,36.738 C82.296,36.738 81.963,36.409 81.963,36.003 C81.963,35.597 82.296,35.267 82.705,35.267 ZM77.797,42.730 L76.198,42.730 C75.751,42.730 75.511,42.472 75.399,42.104 L72.369,31.786 L72.315,31.804 L72.538,33.646 C72.538,36.318 72.538,39.007 72.538,41.679 L73.317,42.159 L73.317,42.730 C72.407,42.730 71.328,42.730 70.418,42.730 L70.418,42.159 L71.197,41.679 C71.197,38.069 71.197,34.439 71.197,30.827 L70.492,30.349 L70.492,29.814 C71.383,29.814 71.813,29.814 72.685,29.814 C73.503,29.814 73.652,29.887 73.857,30.588 L75.677,36.336 L76.514,39.948 L76.549,39.948 C76.549,39.007 76.475,37.773 76.475,36.834 L76.475,30.865 L75.770,30.385 L75.770,29.814 C76.680,29.814 77.590,29.814 78.503,29.814 L78.503,30.385 L77.797,30.865 C77.797,34.825 77.797,38.770 77.797,42.730 ZM61.380,42.195 L62.216,41.643 C62.216,38.013 62.216,34.384 62.216,30.772 L61.510,30.292 L61.510,29.814 C63.777,29.814 65.859,29.814 68.126,29.814 L68.126,32.707 L67.197,32.707 L66.677,30.900 L64.148,30.900 C64.148,32.505 64.148,34.126 64.148,35.747 L65.933,35.747 L66.415,34.734 L66.974,34.734 C66.974,35.636 66.974,36.945 66.974,37.847 L66.415,37.847 L65.933,36.871 L64.148,36.871 C64.148,38.235 64.148,39.580 64.148,40.943 C64.148,41.238 64.074,41.404 63.758,41.515 L63.758,41.607 C64.818,41.607 65.859,41.607 66.919,41.607 L67.549,39.837 L68.369,39.837 L68.369,42.730 C66.044,42.730 63.720,42.730 61.380,42.730 L61.380,42.195 ZM56.783,41.035 L55.872,38.677 C55.502,37.681 55.167,37.424 54.071,37.424 C54.071,38.585 54.071,40.464 54.071,41.643 L54.889,42.195 L54.889,42.730 C53.810,42.730 52.434,42.730 51.357,42.730 L51.357,42.195 L52.175,41.643 C52.175,38.069 52.175,34.401 52.175,30.827 L51.488,30.349 L51.488,29.814 L55.259,29.814 C57.268,29.814 58.903,30.569 58.903,32.818 L58.903,34.493 C58.903,36.079 58.011,36.963 56.804,37.203 C57.360,37.497 57.603,37.847 57.807,38.418 L58.679,40.796 C58.864,41.293 59.200,42.012 59.796,41.882 L59.796,42.600 C59.423,42.786 58.848,42.841 58.439,42.841 C57.268,42.841 57.156,42.012 56.783,41.035 ZM56.971,34.493 L56.971,32.818 C56.971,31.638 56.543,30.957 55.259,30.957 L54.052,30.957 C54.052,32.964 54.052,34.347 54.052,36.354 L55.240,36.354 C56.488,36.354 56.971,35.674 56.971,34.493 ZM45.202,42.914 C42.935,42.914 41.485,41.533 41.485,39.469 L41.485,33.056 C41.485,30.993 42.935,29.611 45.202,29.611 C47.485,29.611 48.935,30.976 48.935,33.056 L48.935,39.469 C48.935,41.551 47.485,42.914 45.202,42.914 ZM47.022,33.056 C47.022,31.840 46.444,30.846 45.202,30.846 C43.973,30.846 43.417,31.601 43.417,33.056 L43.417,39.469 C43.417,40.907 43.973,41.679 45.202,41.679 C46.444,41.679 47.022,40.666 47.022,39.469 L47.022,33.056 ZM35.438,42.933 C33.653,42.933 32.111,42.067 32.111,40.096 L32.111,39.082 L34.212,39.082 L34.212,40.114 C34.212,41.220 34.694,41.679 35.531,41.679 C36.515,41.679 36.942,41.035 36.942,40.114 L36.942,38.548 C36.942,36.133 32.242,37.111 32.242,33.885 L32.242,32.320 C32.242,30.385 33.673,29.667 35.177,29.667 C35.921,29.667 36.684,29.814 37.297,30.495 L37.370,30.495 L37.520,29.795 L38.782,29.795 C38.782,30.938 38.782,32.099 38.782,33.259 L36.869,33.259 L36.869,32.320 C36.869,31.398 36.368,30.900 35.493,30.900 C34.621,30.900 34.174,31.435 34.174,32.320 L34.174,33.885 C34.174,36.115 38.913,35.120 38.913,38.529 L38.913,40.114 C38.913,42.159 37.204,42.933 35.438,42.933 ZM25.898,42.914 C23.631,42.914 22.182,41.533 22.182,39.469 L22.182,33.056 C22.182,30.993 23.631,29.611 25.898,29.611 C28.185,29.611 29.634,30.976 29.634,33.056 L29.634,39.469 C29.634,41.551 28.185,42.914 25.898,42.914 ZM27.721,33.056 C27.721,31.840 27.144,30.846 25.898,30.846 C24.672,30.846 24.116,31.601 24.116,33.056 L24.116,39.469 C24.116,40.907 24.672,41.679 25.898,41.679 C27.144,41.679 27.721,40.666 27.721,39.469 L27.721,33.056 ZM16.211,42.195 L17.029,41.754 L17.029,36.668 L14.018,36.668 L14.018,41.754 L14.854,42.195 L14.854,42.730 L11.304,42.730 L11.304,42.195 L12.140,41.754 L12.140,30.827 L11.434,30.349 L11.434,29.814 L14.723,29.814 L14.723,30.349 L14.018,30.827 L14.018,35.617 L17.029,35.617 L17.029,30.827 L16.323,30.349 L16.323,29.814 L19.612,29.814 L19.612,30.349 L18.906,30.827 L18.906,41.754 L19.743,42.195 L19.743,42.730 L16.211,42.730 L16.211,42.195 ZM6.301,36.738 C5.892,36.738 5.560,36.409 5.560,36.003 C5.560,35.597 5.892,35.267 6.301,35.267 C6.712,35.267 7.042,35.597 7.042,36.003 C7.042,36.409 6.712,36.738 6.301,36.738 ZM63.557,15.660 C63.549,15.257 63.698,14.901 64.004,14.596 C64.309,14.291 64.669,14.140 65.085,14.142 C65.499,14.146 65.862,14.297 66.167,14.597 C66.505,14.932 66.663,15.342 66.636,15.825 L66.023,15.866 C66.058,15.540 65.965,15.271 65.748,15.057 C65.573,14.885 65.366,14.796 65.132,14.786 C64.892,14.778 64.679,14.869 64.489,15.061 C64.298,15.252 64.200,15.463 64.203,15.694 C64.203,15.925 64.287,16.122 64.453,16.286 C64.682,16.510 64.957,16.603 65.279,16.567 L65.273,17.162 C64.775,17.195 64.366,17.053 64.047,16.738 C63.726,16.423 63.562,16.064 63.557,15.660 ZM67.366,16.787 L67.813,16.443 L69.238,18.244 L68.794,18.590 L68.282,17.943 L66.423,19.389 L66.023,18.878 L67.879,17.434 L67.366,16.787 ZM61.998,14.431 C61.674,14.472 61.366,14.383 61.074,14.164 C60.783,13.946 60.611,13.676 60.559,13.355 C60.510,13.033 60.611,12.705 60.865,12.371 L61.851,11.076 L62.371,11.465 L61.399,12.744 C61.257,12.930 61.189,13.109 61.194,13.280 C61.200,13.453 61.276,13.594 61.423,13.704 C61.570,13.814 61.728,13.848 61.894,13.804 C62.064,13.761 62.216,13.646 62.358,13.461 L63.331,12.182 L63.851,12.571 L62.867,13.866 C62.611,14.203 62.322,14.391 61.998,14.431 ZM58.976,12.225 C58.608,12.324 58.183,12.238 57.693,11.969 L56.821,11.485 L58.243,8.952 L59.148,9.451 C59.603,9.703 59.892,10.006 60.009,10.363 C60.129,10.718 60.080,11.093 59.856,11.487 C59.636,11.881 59.344,12.127 58.976,12.225 ZM59.388,10.494 C59.322,10.281 59.148,10.095 58.856,9.936 L58.537,9.760 L57.671,11.300 L58.033,11.500 C58.295,11.644 58.532,11.690 58.744,11.638 C58.957,11.584 59.137,11.432 59.276,11.184 C59.415,10.935 59.453,10.706 59.388,10.494 ZM55.480,10.437 C55.099,10.600 54.709,10.606 54.303,10.453 C53.900,10.301 53.611,10.038 53.436,9.667 C53.262,9.296 53.254,8.909 53.406,8.512 C53.559,8.113 53.823,7.833 54.205,7.669 C54.584,7.506 54.973,7.500 55.379,7.653 C55.783,7.806 56.071,8.067 56.246,8.440 C56.420,8.812 56.428,9.197 56.276,9.595 C56.123,9.992 55.859,10.273 55.480,10.437 ZM55.657,8.655 C55.567,8.425 55.406,8.267 55.180,8.181 C54.951,8.096 54.725,8.108 54.505,8.220 C54.281,8.331 54.123,8.508 54.030,8.750 C53.938,8.991 53.938,9.227 54.030,9.455 C54.120,9.683 54.281,9.841 54.510,9.926 C54.736,10.013 54.962,10.001 55.183,9.890 C55.404,9.780 55.562,9.603 55.654,9.363 C55.747,9.120 55.747,8.885 55.657,8.655 ZM51.507,8.457 L51.997,9.631 L51.213,9.455 L50.788,8.409 L50.346,8.311 L50.139,9.213 L49.502,9.070 L50.150,6.241 L51.232,6.485 C51.676,6.584 51.976,6.729 52.128,6.921 C52.287,7.111 52.324,7.372 52.248,7.700 C52.145,8.154 51.897,8.405 51.507,8.457 ZM51.551,7.215 C51.480,7.140 51.344,7.080 51.139,7.034 L50.662,6.926 L50.472,7.764 L50.935,7.869 C51.153,7.918 51.311,7.916 51.404,7.864 C51.502,7.811 51.564,7.710 51.600,7.556 C51.635,7.404 51.616,7.291 51.551,7.215 ZM47.158,7.958 L46.771,7.923 L46.695,8.728 L46.046,8.669 L46.319,5.781 L47.346,5.875 C47.796,5.917 48.112,6.033 48.300,6.224 C48.488,6.416 48.564,6.688 48.532,7.046 C48.499,7.403 48.368,7.654 48.145,7.800 C47.918,7.946 47.589,7.999 47.158,7.958 ZM47.749,6.578 C47.654,6.498 47.501,6.448 47.286,6.429 L46.916,6.394 L46.826,7.365 L47.262,7.406 C47.480,7.426 47.630,7.396 47.714,7.317 C47.801,7.237 47.853,7.114 47.867,6.948 C47.883,6.780 47.845,6.657 47.749,6.578 ZM41.975,6.910 L41.381,8.577 L40.994,8.623 L40.024,7.140 L40.242,8.954 L39.594,9.029 L39.248,6.150 L40.125,6.046 L41.063,7.541 L41.626,5.870 L42.498,5.767 L42.842,8.647 L42.193,8.723 L41.975,6.910 ZM37.122,9.667 C36.771,9.763 36.449,9.733 36.160,9.578 C35.871,9.422 35.673,9.141 35.561,8.739 L35.122,7.176 L35.752,7.003 L36.182,8.547 C36.248,8.771 36.348,8.933 36.488,9.034 C36.629,9.133 36.790,9.159 36.967,9.110 C37.144,9.062 37.267,8.959 37.335,8.801 C37.403,8.643 37.403,8.453 37.340,8.228 L36.910,6.684 L37.539,6.511 L37.975,8.076 C38.090,8.481 38.062,8.823 37.899,9.102 C37.733,9.382 37.474,9.570 37.122,9.667 ZM32.951,7.989 L33.555,7.750 L34.634,10.446 L34.030,10.684 L32.951,7.989 ZM31.283,9.906 L31.354,11.673 L31.013,11.858 L29.555,10.841 L30.438,12.443 L29.866,12.754 L28.465,10.209 L29.239,9.788 L30.670,10.829 L30.563,9.070 L31.337,8.653 L32.738,11.199 L32.166,11.508 L31.283,9.906 ZM27.334,13.858 L28.536,12.964 L28.882,13.424 L27.157,14.705 L25.402,12.385 L27.089,11.130 L27.438,11.592 L26.274,12.458 L26.634,12.936 L27.683,12.157 L28.018,12.598 L26.969,13.378 L27.334,13.858 ZM25.697,15.981 L24.580,15.766 L24.255,16.079 L24.907,16.742 L24.438,17.194 L22.400,15.115 L23.193,14.348 C23.520,14.033 23.806,13.864 24.051,13.838 C24.296,13.813 24.539,13.922 24.776,14.164 C25.103,14.496 25.182,14.841 25.010,15.194 L26.272,15.425 L25.697,15.981 ZM24.302,14.626 C24.193,14.514 24.086,14.465 23.986,14.481 C23.882,14.497 23.757,14.579 23.609,14.723 L23.258,15.061 L23.860,15.677 L24.203,15.347 C24.364,15.193 24.449,15.062 24.454,14.955 C24.462,14.847 24.410,14.737 24.302,14.626 ZM22.217,18.539 L21.975,18.842 L22.615,19.344 L22.209,19.851 L19.914,18.050 L20.558,17.246 C20.836,16.898 21.108,16.697 21.372,16.645 C21.637,16.592 21.909,16.679 22.192,16.900 C22.476,17.123 22.617,17.368 22.617,17.634 C22.617,17.901 22.487,18.203 22.217,18.539 ZM21.748,17.398 C21.615,17.294 21.490,17.260 21.370,17.295 C21.252,17.330 21.124,17.431 20.993,17.599 L20.762,17.888 L21.533,18.493 L21.805,18.151 C21.942,17.982 21.996,17.841 21.977,17.726 C21.958,17.611 21.882,17.502 21.748,17.398 ZM25.961,56.311 C26.057,56.492 26.116,56.676 26.138,56.864 L25.569,56.983 C25.517,56.671 25.392,56.423 25.195,56.238 C25.116,56.165 25.037,56.125 24.955,56.119 C24.874,56.114 24.803,56.141 24.746,56.203 C24.688,56.264 24.667,56.340 24.688,56.427 C24.710,56.516 24.798,56.679 24.955,56.918 C25.108,57.157 25.195,57.377 25.212,57.580 C25.231,57.782 25.149,57.978 24.969,58.167 C24.789,58.356 24.571,58.443 24.318,58.426 C24.062,58.410 23.816,58.294 23.582,58.075 C23.247,57.759 23.062,57.351 23.026,56.851 L23.637,56.773 C23.677,57.186 23.795,57.485 23.991,57.667 C24.078,57.748 24.163,57.794 24.247,57.804 C24.334,57.813 24.405,57.786 24.465,57.723 C24.525,57.659 24.547,57.584 24.530,57.497 C24.514,57.411 24.446,57.276 24.326,57.090 C24.133,56.800 24.024,56.556 23.999,56.354 C23.975,56.155 24.056,55.953 24.247,55.753 C24.438,55.553 24.656,55.467 24.907,55.494 C25.154,55.521 25.386,55.636 25.604,55.840 C25.746,55.972 25.866,56.130 25.961,56.311 ZM22.588,53.558 L22.124,53.939 L22.961,54.939 L22.533,55.291 L21.697,54.292 L21.228,54.677 L22.187,55.822 L21.745,56.188 L20.367,54.543 L22.617,52.691 L23.966,54.301 L23.517,54.669 L22.588,53.558 ZM26.795,57.735 L27.133,57.286 L28.986,58.653 L28.651,59.102 L27.983,58.611 L26.574,60.490 L26.051,60.104 L27.460,58.225 L26.795,57.735 ZM31.062,59.899 L30.700,63.038 L30.097,62.695 L30.176,62.018 L29.114,61.413 L28.563,61.822 L27.961,61.479 L30.514,59.588 L31.062,59.899 ZM29.612,61.042 L30.247,61.404 L30.356,60.493 L29.612,61.042 ZM34.122,61.355 C34.305,61.431 34.454,61.516 34.569,61.613 C34.684,61.710 34.760,61.810 34.798,61.911 C34.860,62.099 34.858,62.280 34.787,62.455 C34.700,62.664 34.566,62.792 34.386,62.840 C34.326,62.857 34.286,62.865 34.264,62.868 C34.242,62.869 34.204,62.871 34.150,62.872 C34.302,62.976 34.403,63.106 34.454,63.260 C34.509,63.414 34.498,63.576 34.430,63.745 C34.354,63.931 34.220,64.070 34.032,64.162 C33.814,64.267 33.517,64.244 33.147,64.094 L31.961,63.613 L33.068,60.928 L34.122,61.355 ZM34.125,62.291 C34.174,62.172 34.168,62.079 34.111,62.010 C34.051,61.941 33.931,61.871 33.754,61.798 L33.463,61.681 L33.223,62.260 L33.512,62.376 C33.681,62.445 33.812,62.478 33.907,62.475 C34.002,62.471 34.076,62.411 34.125,62.291 ZM32.776,63.351 L33.190,63.519 C33.362,63.589 33.501,63.622 33.604,63.613 C33.708,63.607 33.784,63.541 33.839,63.416 C33.888,63.292 33.877,63.192 33.801,63.115 C33.724,63.038 33.588,62.960 33.386,62.877 L33.029,62.733 L32.776,63.351 ZM37.016,62.340 L36.395,64.581 L37.599,64.908 L37.444,65.464 L35.610,64.966 L36.384,62.168 L37.016,62.340 ZM40.005,62.999 L39.499,65.856 L38.855,65.742 L39.362,62.887 L40.005,62.999 ZM42.286,65.640 C42.406,65.648 42.504,65.630 42.575,65.584 C42.646,65.538 42.686,65.472 42.695,65.384 C42.700,65.298 42.667,65.227 42.602,65.170 C42.531,65.113 42.392,65.051 42.183,64.982 C41.850,64.877 41.610,64.754 41.463,64.613 C41.316,64.474 41.251,64.267 41.272,63.992 C41.294,63.717 41.409,63.514 41.618,63.380 C41.828,63.246 42.084,63.189 42.381,63.212 C42.575,63.227 42.768,63.275 42.956,63.356 C43.147,63.435 43.311,63.543 43.447,63.674 L43.079,64.121 C42.842,63.912 42.586,63.797 42.316,63.777 C42.210,63.769 42.123,63.788 42.054,63.835 C41.986,63.881 41.951,63.946 41.945,64.029 C41.937,64.115 41.970,64.184 42.044,64.239 C42.117,64.294 42.289,64.367 42.561,64.455 C42.831,64.543 43.038,64.662 43.183,64.808 C43.327,64.955 43.387,65.158 43.365,65.417 C43.349,65.676 43.234,65.879 43.024,66.026 C42.815,66.172 42.553,66.234 42.231,66.210 C41.768,66.175 41.365,65.973 41.022,65.607 L41.447,65.164 C41.741,65.461 42.019,65.619 42.286,65.640 ZM45.447,64.560 L46.610,64.501 L46.548,63.291 L47.196,63.257 L47.349,66.153 L46.698,66.187 L46.638,65.048 L45.477,65.108 L45.537,66.248 L44.886,66.281 L44.733,63.384 L45.384,63.350 L45.447,64.560 ZM50.736,63.270 L49.305,63.533 L49.414,64.121 L50.701,63.885 L50.804,64.428 L49.515,64.663 L49.624,65.255 L51.104,64.985 L51.207,65.548 L49.087,65.936 L48.556,63.084 L50.630,62.703 L50.736,63.270 ZM54.101,62.080 C54.445,62.236 54.690,62.528 54.829,62.957 C54.971,63.385 54.951,63.766 54.777,64.100 C54.597,64.433 54.246,64.686 53.714,64.856 L52.763,65.164 L51.859,62.406 L52.842,62.089 C53.338,61.928 53.758,61.925 54.101,62.080 ZM53.205,64.419 L53.600,64.292 C53.883,64.200 54.079,64.059 54.183,63.867 C54.289,63.676 54.298,63.445 54.210,63.175 C54.120,62.903 53.976,62.719 53.774,62.622 C53.575,62.526 53.316,62.528 53.000,62.630 L52.654,62.741 L53.205,64.419 ZM57.930,59.830 C58.150,59.707 58.385,59.669 58.630,59.715 C58.875,59.763 59.063,59.904 59.200,60.143 C59.273,60.274 59.311,60.418 59.311,60.574 C59.311,60.731 59.273,60.952 59.197,61.238 L59.006,61.968 L60.014,61.408 L60.300,61.914 L58.499,62.914 L58.262,62.495 L58.581,61.319 C58.646,61.082 58.684,60.901 58.701,60.776 C58.712,60.649 58.695,60.543 58.646,60.458 C58.600,60.374 58.532,60.319 58.445,60.293 C58.357,60.269 58.268,60.280 58.181,60.328 C58.020,60.418 57.932,60.615 57.916,60.923 L57.309,60.908 C57.325,60.658 57.377,60.447 57.466,60.273 C57.556,60.100 57.709,59.953 57.930,59.830 ZM60.755,58.028 C61.082,57.792 61.407,57.724 61.731,57.825 C62.058,57.928 62.355,58.162 62.625,58.529 C62.897,58.897 63.033,59.248 63.033,59.585 C63.033,59.923 62.870,60.211 62.543,60.447 C62.219,60.685 61.894,60.753 61.567,60.650 C61.243,60.548 60.946,60.315 60.674,59.948 C60.401,59.580 60.268,59.228 60.265,58.890 C60.265,58.553 60.428,58.266 60.755,58.028 ZM61.192,59.573 C61.366,59.807 61.540,59.969 61.720,60.058 C61.900,60.147 62.069,60.134 62.227,60.019 C62.385,59.904 62.448,59.750 62.418,59.553 C62.385,59.356 62.284,59.140 62.110,58.906 C61.938,58.672 61.761,58.510 61.581,58.421 C61.401,58.332 61.232,58.346 61.074,58.460 C60.919,58.575 60.854,58.730 60.886,58.926 C60.916,59.123 61.017,59.340 61.192,59.573 ZM64.402,55.464 C64.737,55.525 65.061,55.719 65.377,56.049 C65.693,56.379 65.873,56.712 65.916,57.046 C65.960,57.381 65.835,57.686 65.543,57.963 C65.251,58.240 64.936,58.348 64.600,58.287 C64.265,58.227 63.941,58.032 63.625,57.702 C63.306,57.372 63.126,57.039 63.083,56.706 C63.039,56.371 63.164,56.065 63.459,55.788 C63.753,55.511 64.066,55.403 64.402,55.464 ZM63.704,56.664 C63.758,56.854 63.889,57.055 64.091,57.266 C64.292,57.477 64.489,57.615 64.677,57.681 C64.867,57.746 65.034,57.712 65.175,57.578 C65.317,57.445 65.358,57.282 65.301,57.092 C65.246,56.900 65.115,56.699 64.914,56.488 C64.712,56.279 64.516,56.140 64.328,56.075 C64.137,56.009 63.971,56.044 63.829,56.176 C63.687,56.310 63.647,56.472 63.704,56.664 ZM65.562,54.579 C65.486,54.342 65.459,54.126 65.478,53.931 C65.497,53.738 65.589,53.545 65.748,53.352 C65.911,53.159 66.113,53.040 66.358,52.994 C66.603,52.949 66.832,53.014 67.044,53.188 C67.162,53.283 67.249,53.404 67.306,53.550 C67.366,53.695 67.410,53.915 67.445,54.208 L67.532,54.958 L68.268,54.074 L68.718,54.443 L67.407,56.022 L67.034,55.716 L66.900,54.505 C66.876,54.262 66.843,54.078 66.810,53.955 C66.777,53.834 66.723,53.742 66.647,53.680 C66.570,53.618 66.489,53.591 66.396,53.599 C66.306,53.607 66.227,53.649 66.164,53.726 C66.047,53.866 66.036,54.082 66.135,54.374 L65.562,54.579 Z"></path>
												</svg>