											<svg xmlns="http://www.w3.org/2000/svg" xmlns:xlink="http://www.w3.org/1999/xlink" width="99px" height="71px">
											<path fill-rule="evenodd" fill="rgb(0, 0, 0)" d="M97.908,30.270 C97.796,30.615 97.603,30.933 97.343,31.218 C91.210,37.865 83.697,43.239 75.397,46.875 C67.102,50.524 58.025,52.399 49.002,52.390 C39.977,52.399 30.902,50.524 22.608,46.875 C14.307,43.239 6.795,37.865 0.662,31.218 C0.401,30.933 0.206,30.615 0.097,30.270 C-0.017,29.929 -0.044,29.577 0.010,29.228 C0.064,28.880 0.195,28.578 0.396,28.330 C0.597,28.082 0.860,27.895 1.175,27.775 C3.310,26.954 5.404,26.065 7.455,25.111 C7.536,25.073 7.604,25.027 7.667,24.971 C7.726,24.916 7.778,24.851 7.822,24.769 C8.930,22.798 10.100,20.878 11.331,19.010 C11.510,18.734 11.741,18.510 12.007,18.337 C12.276,18.164 12.569,18.052 12.884,18.000 C13.197,17.950 13.490,17.965 13.756,18.045 C14.022,18.126 14.253,18.270 14.443,18.474 C18.838,23.239 24.221,27.085 30.142,29.679 C36.060,32.279 42.506,33.617 49.002,33.613 C55.499,33.617 61.941,32.279 67.862,29.679 C73.784,27.085 79.167,23.239 83.561,18.474 C83.749,18.270 83.980,18.128 84.246,18.045 C84.512,17.965 84.805,17.950 85.120,18.000 C85.433,18.052 85.729,18.164 85.995,18.337 C86.264,18.510 86.492,18.735 86.674,19.010 C87.902,20.878 89.072,22.798 90.181,24.769 C90.227,24.848 90.275,24.914 90.338,24.971 L90.373,25.004 C90.422,25.045 90.482,25.080 90.550,25.111 C92.598,26.065 94.692,26.954 96.827,27.773 C97.142,27.895 97.405,28.081 97.606,28.330 C97.807,28.578 97.940,28.880 97.994,29.228 C98.049,29.578 98.022,29.929 97.908,30.270 ZM97.185,28.696 C97.033,28.507 96.835,28.365 96.596,28.272 C94.466,27.435 92.380,26.533 90.335,25.561 C90.205,25.499 90.093,25.424 89.998,25.333 L89.816,25.163 L89.835,25.144 C89.803,25.101 89.776,25.054 89.749,25.007 C88.657,23.031 87.500,21.100 86.286,19.223 C86.150,19.012 85.979,18.838 85.778,18.707 C85.577,18.575 85.354,18.491 85.115,18.450 C84.873,18.409 84.648,18.418 84.450,18.480 C84.249,18.543 84.069,18.652 83.925,18.811 C79.482,23.625 74.044,27.511 68.064,30.131 C62.080,32.761 55.564,34.113 49.002,34.109 C42.440,34.113 35.925,32.761 29.941,30.131 C23.960,27.511 18.520,23.625 14.079,18.811 C13.932,18.652 13.756,18.543 13.552,18.480 C13.354,18.418 13.129,18.409 12.889,18.450 C12.648,18.491 12.428,18.575 12.227,18.707 C12.026,18.838 11.855,19.011 11.716,19.223 C10.502,21.100 9.345,23.031 8.253,25.008 C8.185,25.132 8.101,25.241 8.006,25.332 C7.908,25.423 7.794,25.500 7.669,25.561 C5.621,26.533 3.535,27.435 1.406,28.272 C1.167,28.365 0.972,28.509 0.819,28.696 C0.670,28.885 0.572,29.116 0.532,29.381 C0.491,29.648 0.515,29.913 0.597,30.168 C0.681,30.428 0.828,30.665 1.026,30.883 C7.113,37.479 14.568,42.813 22.806,46.422 C31.038,50.043 40.045,51.905 49.002,51.895 C57.960,51.905 66.966,50.043 75.196,46.422 C83.437,42.813 90.889,37.479 96.979,30.881 C97.174,30.665 97.324,30.426 97.408,30.167 C97.489,29.913 97.511,29.648 97.473,29.381 C97.432,29.116 97.332,28.885 97.185,28.696 ZM87.527,27.788 C87.250,27.490 87.261,27.022 87.554,26.742 C87.847,26.463 88.309,26.468 88.600,26.761 C88.885,27.051 88.882,27.528 88.581,27.814 C88.282,28.104 87.809,28.090 87.527,27.788 ZM86.918,34.072 L84.863,35.681 C84.767,35.756 84.691,35.747 84.618,35.653 L79.468,29.073 C79.400,28.987 79.406,28.901 79.498,28.828 L81.551,27.218 C82.358,26.587 83.127,26.688 83.757,27.494 L87.185,31.872 C87.815,32.678 87.722,33.442 86.918,34.072 ZM85.867,32.518 L82.817,28.619 C82.635,28.388 82.421,28.362 82.198,28.536 L81.410,29.153 L85.006,33.746 L85.794,33.129 C86.017,32.954 86.049,32.749 85.867,32.518 ZM80.780,38.432 L79.843,38.963 C79.759,39.011 79.677,39.005 79.602,38.937 L75.867,35.714 L75.821,35.740 L78.091,39.755 C78.146,39.851 78.129,39.934 78.026,39.992 L77.043,40.551 C76.945,40.603 76.858,40.579 76.804,40.484 L72.689,33.211 C72.635,33.117 72.659,33.027 72.754,32.974 L73.691,32.443 C73.778,32.395 73.854,32.401 73.930,32.470 L77.646,35.680 L77.706,35.647 L75.443,31.651 C75.389,31.557 75.405,31.473 75.508,31.414 L76.494,30.857 C76.587,30.803 76.676,30.827 76.730,30.922 L80.845,38.195 C80.900,38.291 80.873,38.379 80.780,38.432 ZM72.789,42.575 L71.709,42.982 C71.616,43.017 71.548,42.984 71.491,42.900 L70.649,41.522 L68.838,42.204 L69.123,43.794 C69.137,43.892 69.106,43.963 69.014,43.998 L67.925,44.407 C67.814,44.449 67.738,44.409 67.727,44.284 L66.472,35.819 C66.453,35.708 66.499,35.646 66.591,35.611 L68.004,35.078 C68.096,35.043 68.172,35.062 68.232,35.155 L72.866,42.348 C72.928,42.453 72.909,42.529 72.789,42.575 ZM67.963,37.127 L68.648,40.927 L69.948,40.436 L67.963,37.127 ZM62.496,45.853 C62.390,45.876 62.327,45.834 62.284,45.743 L61.002,43.188 L60.266,43.343 L60.833,46.027 C60.855,46.134 60.806,46.211 60.698,46.234 L59.592,46.467 C59.486,46.490 59.407,46.440 59.386,46.333 L57.658,38.155 C57.634,38.049 57.686,37.971 57.792,37.948 L60.464,37.384 C61.464,37.172 62.110,37.592 62.319,38.592 L62.868,41.190 C63.020,41.905 62.851,42.430 62.387,42.761 L63.713,45.395 C63.772,45.517 63.721,45.594 63.604,45.619 L62.496,45.853 ZM60.937,39.197 C60.877,38.921 60.698,38.803 60.421,38.861 L59.367,39.084 L59.970,41.938 L61.024,41.715 C61.301,41.657 61.417,41.476 61.358,41.199 L60.937,39.197 ZM53.321,47.208 L50.716,47.366 C50.607,47.371 50.539,47.311 50.531,47.203 L50.026,38.861 C50.018,38.742 50.081,38.683 50.189,38.676 L52.794,38.519 C53.815,38.456 54.402,38.966 54.462,39.986 L54.584,41.986 C54.608,42.388 54.334,42.710 53.945,42.798 L53.948,42.820 C54.342,42.862 54.654,43.147 54.679,43.550 L54.798,45.547 C54.861,46.569 54.342,47.145 53.321,47.208 ZM53.038,40.378 C53.022,40.097 52.870,39.952 52.577,39.970 L51.588,40.030 L51.724,42.225 L52.710,42.165 C52.992,42.147 53.136,41.987 53.120,41.715 L53.038,40.378 ZM53.256,44.006 C53.239,43.724 53.090,43.579 52.797,43.599 L51.811,43.658 L51.941,45.852 L52.930,45.792 C53.212,45.776 53.356,45.625 53.337,45.331 L53.256,44.006 ZM44.445,47.189 L43.233,47.086 C42.215,47.001 41.718,46.413 41.805,45.394 L42.272,39.844 C42.359,38.826 42.946,38.328 43.964,38.414 L45.178,38.516 C46.194,38.603 46.691,39.190 46.607,40.209 L46.140,45.759 C46.053,46.779 45.466,47.275 44.445,47.189 ZM44.787,39.893 L44.160,39.840 C43.880,39.815 43.714,39.954 43.690,40.237 L43.269,45.244 C43.244,45.537 43.383,45.691 43.665,45.714 L44.293,45.768 C44.575,45.792 44.738,45.663 44.763,45.371 L45.184,40.363 C45.208,40.080 45.069,39.916 44.787,39.893 ZM38.410,41.915 C38.247,42.626 37.872,43.031 37.312,43.137 L37.402,46.084 C37.405,46.219 37.326,46.268 37.209,46.240 L36.106,45.985 C36.001,45.960 35.960,45.895 35.960,45.795 L35.873,42.937 L35.142,42.768 L34.526,45.441 C34.499,45.547 34.422,45.596 34.314,45.572 L33.214,45.316 C33.108,45.292 33.059,45.213 33.084,45.107 L34.966,36.961 C34.990,36.855 35.069,36.806 35.172,36.831 L37.834,37.447 C38.831,37.678 39.238,38.330 39.007,39.327 L38.410,41.915 ZM37.171,38.769 L36.123,38.526 L35.465,41.367 L36.514,41.610 C36.791,41.674 36.973,41.560 37.035,41.284 L37.497,39.291 C37.562,39.015 37.448,38.831 37.171,38.769 ZM31.614,37.054 C31.573,37.154 31.500,37.195 31.386,37.152 L30.212,36.692 L27.632,43.304 C27.589,43.415 27.518,43.446 27.404,43.403 L26.350,42.990 C26.253,42.950 26.209,42.876 26.253,42.764 L28.833,36.154 L27.660,35.695 C27.556,35.656 27.518,35.570 27.559,35.469 L27.955,34.455 C27.996,34.354 28.078,34.317 28.181,34.356 L31.907,35.814 C32.021,35.858 32.049,35.938 32.008,36.040 L31.614,37.054 ZM24.612,34.070 C24.558,34.165 24.482,34.208 24.368,34.144 L22.005,32.802 L20.932,34.693 L22.738,35.719 C22.830,35.774 22.857,35.862 22.798,35.967 L22.265,36.903 C22.206,37.006 22.119,37.031 22.024,36.978 L20.218,35.952 L19.134,37.862 L21.497,39.205 C21.611,39.269 21.622,39.338 21.562,39.443 L21.027,40.389 C20.973,40.484 20.902,40.519 20.788,40.454 L17.311,38.477 C17.224,38.429 17.200,38.339 17.254,38.244 L21.377,30.979 C21.429,30.886 21.519,30.861 21.603,30.909 L25.085,32.886 C25.196,32.951 25.201,33.029 25.150,33.124 L24.612,34.070 ZM16.138,32.331 C15.690,32.906 15.182,33.117 14.628,32.976 L13.465,35.685 C13.411,35.808 13.319,35.820 13.226,35.745 L12.335,35.049 C12.249,34.981 12.240,34.905 12.281,34.814 L13.408,32.188 L12.819,31.726 L11.130,33.887 C11.064,33.972 10.972,33.984 10.885,33.918 L9.994,33.220 C9.907,33.154 9.897,33.061 9.964,32.976 L15.106,26.387 C15.171,26.302 15.263,26.291 15.350,26.358 L17.501,28.039 C18.308,28.669 18.403,29.433 17.773,30.239 L16.138,32.331 ZM16.344,28.957 L15.497,28.294 L13.702,30.593 L14.549,31.257 C14.772,31.430 14.986,31.403 15.160,31.181 L16.421,29.569 C16.594,29.345 16.567,29.131 16.344,28.957 ZM9.424,27.814 C9.120,27.528 9.117,27.051 9.405,26.760 C9.696,26.468 10.157,26.463 10.451,26.742 C10.741,27.022 10.755,27.488 10.475,27.788 C10.195,28.090 9.723,28.104 9.424,27.814 ZM49.002,29.660 C41.088,29.660 34.672,23.240 34.672,15.320 C34.672,7.401 41.088,0.982 49.002,0.982 C56.917,0.982 63.332,7.401 63.332,15.320 C63.332,23.240 56.917,29.660 49.002,29.660 ZM49.002,2.524 C41.940,2.524 36.215,8.254 36.215,15.320 C36.215,22.387 41.940,28.116 49.002,28.116 C56.064,28.116 61.790,22.387 61.790,15.320 C61.790,8.254 56.064,2.524 49.002,2.524 ZM54.674,20.089 L43.331,20.089 C43.005,20.089 42.715,19.896 42.587,19.597 L40.156,13.922 C40.028,13.625 40.088,13.280 40.311,13.046 C40.534,12.812 40.873,12.730 41.177,12.841 L44.955,14.215 L48.277,7.565 C48.416,7.290 48.695,7.118 49.002,7.118 C49.309,7.118 49.589,7.290 49.727,7.565 L53.049,14.215 L56.827,12.841 C57.129,12.730 57.471,12.812 57.694,13.046 C57.914,13.280 57.976,13.625 57.849,13.922 L55.417,19.597 C55.290,19.896 54.997,20.089 54.674,20.089 ZM43.331,20.899 L54.674,20.899 C55.119,20.899 55.483,21.264 55.483,21.711 C55.483,22.157 55.119,22.521 54.674,22.521 L43.331,22.521 C42.886,22.521 42.522,22.157 42.522,21.711 C42.522,21.264 42.886,20.899 43.331,20.899 ZM23.528,62.029 C23.789,62.029 24.017,62.088 24.216,62.205 C24.332,62.267 24.419,62.341 24.474,62.428 C24.332,62.550 24.262,62.715 24.262,62.919 C24.262,63.185 24.384,63.317 24.631,63.317 C25.047,63.317 25.370,62.829 25.606,61.852 C25.671,61.587 25.734,61.321 25.791,61.056 C25.511,61.395 25.057,61.565 24.427,61.565 C23.987,61.565 23.642,61.461 23.390,61.250 C23.137,61.039 23.010,60.687 23.010,60.193 C23.010,59.884 23.064,59.555 23.167,59.205 C23.273,58.857 23.431,58.534 23.640,58.236 C23.851,57.940 24.112,57.692 24.433,57.495 C24.751,57.297 25.104,57.198 25.492,57.198 C25.883,57.198 26.171,57.259 26.356,57.384 L28.170,57.198 L27.540,60.758 C27.326,61.970 26.989,62.814 26.530,63.290 C26.092,63.741 25.448,63.966 24.596,63.966 C23.947,63.966 23.436,63.865 23.064,63.661 C22.694,63.457 22.510,63.185 22.510,62.844 C22.510,62.591 22.605,62.391 22.798,62.246 C22.988,62.102 23.232,62.029 23.528,62.029 ZM26.310,57.745 C26.277,57.738 26.247,57.729 26.214,57.717 C26.155,57.692 26.084,57.680 26.003,57.680 C25.628,57.680 25.326,57.990 25.104,58.607 C24.933,59.089 24.846,59.628 24.846,60.221 C24.846,60.641 24.954,60.852 25.169,60.852 C25.318,60.852 25.462,60.770 25.606,60.610 C25.715,60.479 25.794,60.319 25.837,60.127 L26.310,57.745 ZM29.200,57.384 L31.082,57.198 L30.403,60.777 C30.381,60.913 30.367,61.022 30.367,61.102 C30.367,61.461 30.476,61.640 30.691,61.640 C30.932,61.640 31.141,61.476 31.312,61.148 C31.370,61.042 31.408,60.923 31.435,60.787 L32.092,57.384 L33.917,57.198 L33.230,60.814 C33.211,60.906 33.203,61.003 33.203,61.102 C33.203,61.200 33.230,61.304 33.287,61.412 C33.341,61.520 33.461,61.587 33.640,61.611 C33.602,61.760 33.518,61.883 33.388,61.982 C33.116,62.192 32.834,62.298 32.540,62.298 C32.247,62.298 32.013,62.245 31.842,62.140 C31.668,62.036 31.557,61.896 31.505,61.723 C31.212,62.106 30.696,62.298 29.960,62.298 C29.577,62.298 29.246,62.182 28.969,61.950 C28.692,61.719 28.550,61.436 28.550,61.102 C28.550,60.916 28.561,60.777 28.577,60.685 L29.200,57.384 ZM39.626,69.610 L32.958,69.610 L32.958,69.378 L39.626,69.378 L39.626,69.610 ZM39.420,61.611 C39.360,61.822 39.216,61.988 38.991,62.113 C38.763,62.235 38.524,62.298 38.271,62.298 C38.019,62.298 37.807,62.250 37.638,62.154 C37.467,62.059 37.356,61.931 37.307,61.769 C37.209,61.924 37.054,62.051 36.845,62.150 C36.633,62.249 36.389,62.298 36.106,62.298 C35.827,62.298 35.574,62.261 35.343,62.186 C35.115,62.113 34.928,61.995 34.784,61.834 C34.640,61.673 34.531,61.466 34.469,61.213 C34.404,60.959 34.371,60.626 34.371,60.212 C34.371,59.797 34.441,59.402 34.585,59.024 C34.727,58.648 34.928,58.323 35.186,58.051 C35.718,57.482 36.422,57.198 37.299,57.198 C37.614,57.198 37.885,57.251 38.114,57.355 L39.700,57.198 L39.013,60.814 C38.996,60.889 38.985,60.993 38.985,61.129 C38.985,61.265 39.029,61.376 39.110,61.463 C39.194,61.550 39.298,61.599 39.420,61.611 ZM37.339,57.753 C37.188,57.753 37.068,57.779 36.981,57.828 C36.889,57.878 36.810,57.957 36.736,58.069 C36.666,58.180 36.601,58.331 36.541,58.520 C36.476,58.707 36.394,59.054 36.294,59.558 C36.193,60.061 36.139,60.493 36.139,60.852 C36.139,61.211 36.169,61.442 36.226,61.546 C36.280,61.652 36.356,61.704 36.454,61.704 C36.655,61.704 36.823,61.610 36.970,61.421 C37.117,61.232 37.215,60.972 37.272,60.637 L37.763,57.921 C37.633,57.810 37.492,57.753 37.339,57.753 ZM42.451,57.198 L42.283,58.134 C42.587,57.510 43.078,57.198 43.758,57.198 C44.116,57.198 44.393,57.290 44.586,57.476 C44.781,57.661 44.879,57.944 44.879,58.324 C44.879,58.705 44.754,59.014 44.504,59.257 C44.255,59.497 43.915,59.618 43.489,59.618 C43.304,59.618 43.174,59.581 43.100,59.506 C43.320,59.111 43.434,58.713 43.434,58.311 C43.434,58.044 43.337,57.911 43.146,57.911 C42.997,57.911 42.848,58.039 42.690,58.292 C42.533,58.546 42.427,58.835 42.375,59.164 L41.894,62.113 L39.977,62.298 L40.922,57.384 L42.451,57.198 ZM42.495,68.834 L41.816,68.834 L41.816,69.533 L42.356,69.533 L42.356,69.891 L41.816,69.891 L41.816,70.628 L42.495,70.628 L42.495,70.987 L41.419,70.987 L41.419,68.476 L42.495,68.476 L42.495,68.834 ZM43.611,70.409 C43.611,70.589 43.690,70.653 43.815,70.653 C43.940,70.653 44.021,70.589 44.021,70.409 C44.021,69.891 43.250,69.795 43.250,69.078 C43.250,68.677 43.445,68.446 43.831,68.446 C44.214,68.446 44.412,68.677 44.412,69.078 L44.412,69.156 L44.037,69.156 L44.037,69.053 C44.037,68.874 43.967,68.804 43.842,68.804 C43.717,68.804 43.643,68.874 43.643,69.053 C43.643,69.569 44.415,69.666 44.415,70.384 C44.415,70.786 44.214,71.016 43.826,71.016 C43.440,71.016 43.239,70.786 43.239,70.384 L43.239,70.230 L43.611,70.230 L43.611,70.409 ZM45.833,58.051 C46.365,57.482 47.068,57.198 47.946,57.198 C48.261,57.198 48.533,57.251 48.761,57.355 L50.347,57.198 L49.659,60.814 C49.643,60.889 49.632,60.993 49.632,61.129 C49.632,61.265 49.676,61.376 49.757,61.463 C49.842,61.550 49.945,61.599 50.067,61.611 C50.007,61.822 49.863,61.988 49.638,62.113 C49.410,62.235 49.171,62.298 48.918,62.298 C48.665,62.298 48.454,62.250 48.285,62.154 C48.114,62.059 48.003,61.931 47.954,61.769 C47.856,61.924 47.701,62.051 47.492,62.150 C47.280,62.249 47.036,62.298 46.753,62.298 C46.474,62.298 46.221,62.261 45.990,62.186 C45.762,62.113 45.575,61.995 45.431,61.834 C45.287,61.673 45.178,61.466 45.115,61.213 C45.050,60.959 45.018,60.626 45.018,60.212 C45.018,59.797 45.089,59.402 45.232,59.024 C45.374,58.648 45.575,58.323 45.833,58.051 ZM46.873,61.546 C46.927,61.652 47.003,61.704 47.101,61.704 C47.302,61.704 47.470,61.610 47.617,61.421 C47.764,61.232 47.861,60.972 47.919,60.637 L48.410,57.921 C48.280,57.810 48.139,57.753 47.987,57.753 C47.834,57.753 47.715,57.779 47.628,57.828 C47.536,57.878 47.457,57.957 47.384,58.069 C47.313,58.180 47.248,58.331 47.188,58.520 C47.123,58.707 47.041,59.054 46.941,59.558 C46.840,60.061 46.786,60.493 46.786,60.852 C46.786,61.211 46.816,61.442 46.873,61.546 ZM46.303,68.834 L45.890,68.834 L45.890,70.987 L45.498,70.987 L45.498,68.834 L45.086,68.834 L45.086,68.476 L46.303,68.476 L46.303,68.834 ZM48.247,69.095 L48.247,70.366 C48.247,70.768 48.052,70.987 47.658,70.987 L47.036,70.987 L47.036,68.476 L47.658,68.476 C48.052,68.476 48.247,68.694 48.247,69.095 ZM47.430,68.834 L47.430,70.628 L47.650,70.628 C47.777,70.628 47.851,70.563 47.851,70.384 L47.851,69.078 C47.851,68.898 47.777,68.834 47.650,68.834 L47.430,68.834 ZM50.200,68.446 C50.588,68.446 50.789,68.677 50.789,69.078 C50.789,69.903 49.931,70.186 50.007,70.628 L50.751,70.628 L50.751,70.987 L49.611,70.987 L49.611,70.679 C49.611,69.939 50.393,69.817 50.393,69.092 C50.393,68.867 50.317,68.804 50.189,68.804 C50.064,68.804 49.985,68.874 49.985,69.053 L49.985,69.322 L49.611,69.322 L49.611,69.078 C49.611,68.677 49.812,68.446 50.200,68.446 ZM52.158,68.446 C52.544,68.446 52.756,68.677 52.756,69.078 L52.756,70.384 C52.756,70.786 52.544,71.016 52.158,71.016 C51.773,71.016 51.561,70.786 51.561,70.384 L51.561,69.078 C51.561,68.677 51.773,68.446 52.158,68.446 ZM51.955,70.409 C51.955,70.589 52.033,70.657 52.158,70.657 C52.283,70.657 52.362,70.589 52.362,70.409 L52.362,69.053 C52.362,68.874 52.283,68.804 52.158,68.804 C52.033,68.804 51.955,68.874 51.955,69.053 L51.955,70.409 ZM50.616,62.298 L51.577,57.374 L53.098,57.198 L52.951,58.107 C53.239,57.501 53.831,57.198 54.720,57.198 C55.151,57.198 55.461,57.289 55.640,57.471 C55.825,57.653 55.915,57.949 55.915,58.357 C55.915,58.740 55.817,59.380 55.619,60.276 C55.526,60.678 55.480,60.955 55.480,61.106 C55.480,61.258 55.521,61.376 55.605,61.463 C55.689,61.550 55.792,61.599 55.915,61.611 C55.852,61.822 55.716,61.988 55.502,62.113 C55.290,62.235 55.043,62.298 54.766,62.298 C54.019,62.298 53.644,62.007 53.644,61.425 C53.652,61.265 53.679,61.049 53.728,60.777 L53.897,59.924 C54.062,59.120 54.146,58.629 54.146,58.449 C54.146,58.090 54.040,57.911 53.831,57.911 C53.478,57.911 53.209,58.373 53.022,59.293 L52.479,62.113 L50.616,62.298 ZM54.136,68.446 C54.524,68.446 54.736,68.677 54.736,69.078 L54.736,70.384 C54.736,70.786 54.524,71.016 54.136,71.016 C53.750,71.016 53.538,70.786 53.538,70.384 L53.538,69.078 C53.538,68.677 53.750,68.446 54.136,68.446 ZM53.935,70.409 C53.935,70.589 54.011,70.657 54.136,70.657 C54.263,70.657 54.342,70.589 54.342,70.409 L54.342,69.053 C54.342,68.874 54.263,68.804 54.136,68.804 C54.011,68.804 53.935,68.874 53.935,69.053 L53.935,70.409 ZM56.140,68.446 C56.526,68.446 56.727,68.677 56.727,69.078 C56.727,69.903 55.868,70.186 55.945,70.628 L56.689,70.628 L56.689,70.987 L55.551,70.987 L55.551,70.679 C55.551,69.939 56.330,69.817 56.330,69.092 C56.330,68.867 56.254,68.804 56.129,68.804 C56.002,68.804 55.923,68.874 55.923,69.053 L55.923,69.322 L55.551,69.322 L55.551,69.078 C55.551,68.677 55.752,68.446 56.140,68.446 ZM57.425,57.800 L56.879,57.800 L56.917,57.522 C57.656,57.299 58.386,56.916 59.103,56.373 L59.546,56.373 L59.323,57.384 L60.049,57.384 L59.964,57.800 L59.250,57.800 L58.777,60.304 C58.699,60.687 58.658,60.944 58.658,61.073 C58.658,61.371 58.788,61.550 59.046,61.611 C58.986,61.822 58.843,61.988 58.620,62.113 C58.400,62.235 58.128,62.298 57.813,62.298 C57.498,62.298 57.254,62.199 57.074,62.002 C56.895,61.803 56.803,61.531 56.803,61.185 C56.803,61.018 56.846,60.724 56.933,60.304 L57.425,57.800 ZM62.458,61.129 C62.691,61.129 62.936,61.075 63.186,60.967 C63.436,60.859 63.612,60.719 63.718,60.545 C63.870,60.651 63.949,60.819 63.949,61.050 C63.949,61.283 63.892,61.473 63.772,61.621 C63.656,61.769 63.501,61.893 63.310,61.992 C62.914,62.196 62.504,62.298 62.077,62.298 C61.651,62.298 61.311,62.251 61.061,62.159 C60.812,62.067 60.605,61.934 60.437,61.760 C60.111,61.432 59.945,60.969 59.945,60.370 C59.945,59.436 60.198,58.684 60.706,58.115 C61.249,57.503 61.993,57.198 62.938,57.198 C63.525,57.198 63.965,57.321 64.256,57.569 C64.470,57.753 64.579,57.998 64.579,58.301 C64.579,59.390 63.639,59.933 61.762,59.933 C61.738,60.093 61.724,60.243 61.724,60.379 C61.724,60.663 61.790,60.859 61.914,60.967 C62.042,61.075 62.221,61.129 62.458,61.129 ZM62.865,59.126 C63.118,58.866 63.245,58.531 63.245,58.115 C63.245,57.974 63.218,57.864 63.167,57.786 C63.115,57.710 63.033,57.670 62.930,57.670 C62.824,57.670 62.727,57.691 62.637,57.732 C62.547,57.771 62.458,57.859 62.365,57.995 C62.137,58.305 61.958,58.817 61.827,59.534 C62.265,59.534 62.610,59.398 62.865,59.126 ZM65.043,69.610 L58.375,69.610 L58.375,69.378 L65.043,69.378 L65.043,69.610 ZM65.635,58.115 C66.179,57.503 66.923,57.198 67.868,57.198 C68.455,57.198 68.895,57.321 69.183,57.569 C69.400,57.753 69.508,57.998 69.508,58.301 C69.508,59.390 68.569,59.933 66.692,59.933 C66.668,60.093 66.654,60.243 66.654,60.379 C66.654,60.663 66.716,60.859 66.844,60.967 C66.972,61.075 67.151,61.129 67.387,61.129 C67.621,61.129 67.862,61.075 68.112,60.967 C68.365,60.859 68.542,60.719 68.648,60.545 C68.802,60.651 68.878,60.819 68.878,61.050 C68.878,61.283 68.819,61.473 68.702,61.621 C68.585,61.769 68.430,61.893 68.237,61.992 C67.844,62.196 67.434,62.298 67.007,62.298 C66.581,62.298 66.244,62.251 65.991,62.159 C65.741,62.067 65.532,61.934 65.367,61.760 C65.038,61.432 64.875,60.969 64.875,60.370 C64.875,59.436 65.130,58.684 65.635,58.115 ZM67.795,59.126 C68.047,58.866 68.175,58.531 68.175,58.115 C68.175,57.974 68.148,57.864 68.096,57.786 C68.042,57.710 67.966,57.670 67.860,57.670 C67.754,57.670 67.656,57.691 67.567,57.732 C67.477,57.771 67.387,57.859 67.292,57.995 C67.064,58.305 66.885,58.817 66.757,59.534 C67.194,59.534 67.542,59.398 67.795,59.126 ZM72.743,57.198 C72.963,57.198 73.164,57.222 73.335,57.272 C73.341,57.248 73.352,57.202 73.363,57.132 L73.409,56.846 C73.436,56.722 73.466,56.557 73.501,56.354 L73.650,55.621 L75.495,55.435 L74.465,60.814 C74.460,60.852 74.457,60.901 74.457,60.963 L74.457,61.110 C74.457,61.247 74.490,61.366 74.561,61.467 C74.626,61.569 74.718,61.621 74.827,61.621 C74.704,61.912 74.455,62.118 74.077,62.242 C73.946,62.279 73.792,62.298 73.610,62.298 C73.425,62.298 73.251,62.250 73.086,62.154 C72.920,62.059 72.811,61.931 72.762,61.769 C72.662,61.931 72.512,62.059 72.317,62.154 C72.119,62.250 71.877,62.298 71.589,62.298 C71.301,62.298 71.040,62.261 70.801,62.186 C70.562,62.113 70.369,61.995 70.223,61.834 C69.948,61.519 69.813,61.003 69.813,60.285 C69.813,59.358 70.084,58.614 70.630,58.051 C71.174,57.482 71.877,57.198 72.743,57.198 ZM71.918,61.723 C72.116,61.723 72.284,61.624 72.423,61.425 C72.561,61.228 72.659,60.966 72.713,60.637 L73.216,57.921 C73.086,57.810 72.906,57.753 72.678,57.753 C72.447,57.753 72.273,57.878 72.149,58.126 C72.026,58.373 71.901,58.803 71.774,59.414 C71.649,60.026 71.583,60.607 71.583,61.158 C71.583,61.534 71.695,61.723 71.918,61.723 Z"></path>
											</svg>
										