<svg xmlns="http://www.w3.org/2000/svg" xmlns:xlink="http://www.w3.org/1999/xlink" width="100px" height="70px">
												<path fill-rule="evenodd" fill="rgb(0, 0, 0)" d="M98.756,34.931 C96.712,37.137 94.731,39.379 92.807,41.659 C92.629,41.869 92.543,42.107 92.543,42.384 C92.529,45.379 92.446,48.363 92.296,51.329 C92.279,51.699 92.107,52.017 91.817,52.234 C91.527,52.447 91.199,52.500 90.890,52.376 C88.174,51.306 85.415,50.341 82.627,49.488 C82.105,49.330 81.820,48.723 81.990,48.139 L82.297,47.073 C82.466,46.486 83.040,46.140 83.577,46.303 C84.384,46.550 85.188,46.805 85.989,47.071 C87.048,47.418 88.231,46.788 88.630,45.630 L93.508,31.359 C95.113,31.923 96.706,32.517 98.288,33.139 C98.652,33.284 98.908,33.566 99.002,33.935 C99.100,34.303 99.011,34.655 98.756,34.931 ZM84.235,22.372 C83.991,22.308 83.747,22.247 83.505,22.186 L93.904,6.813 C94.737,5.584 94.820,4.124 94.134,2.805 C93.447,1.489 92.210,0.733 90.737,0.733 L8.487,0.733 C7.017,0.733 5.779,1.489 5.093,2.806 C4.407,4.124 4.487,5.584 5.320,6.813 L15.695,22.150 C15.454,22.211 15.210,22.273 14.966,22.336 L4.740,7.217 C3.770,5.783 3.666,4.011 4.467,2.474 C5.268,0.937 6.773,0.019 8.487,0.019 L90.737,0.019 C92.454,0.019 93.955,0.937 94.760,2.474 C95.557,4.009 95.457,5.783 94.490,7.217 L84.235,22.372 ZM10.430,45.630 C10.832,46.788 12.012,47.418 13.074,47.071 C13.875,46.804 14.679,46.550 15.483,46.303 C16.020,46.140 16.597,46.486 16.763,47.073 L17.073,48.139 C17.243,48.723 16.956,49.330 16.436,49.488 C13.646,50.341 10.890,51.306 8.174,52.376 C7.864,52.500 7.536,52.449 7.243,52.234 C6.957,52.019 6.784,51.698 6.767,51.329 C6.618,48.363 6.531,45.379 6.520,42.384 C6.520,42.107 6.431,41.869 6.256,41.659 C4.332,39.379 2.349,37.137 0.305,34.931 C0.052,34.655 -0.037,34.301 0.058,33.934 C0.152,33.566 0.408,33.284 0.775,33.139 C2.357,32.517 3.948,31.923 5.552,31.361 L10.430,45.630 ZM45.297,50.387 C45.323,50.312 45.389,50.263 45.466,50.263 L48.449,50.268 L49.365,47.395 C49.391,47.323 49.457,47.273 49.535,47.273 C49.612,47.273 49.681,47.323 49.704,47.395 L50.620,50.268 L53.603,50.263 C53.680,50.263 53.746,50.312 53.772,50.387 C53.795,50.460 53.769,50.542 53.706,50.588 L51.289,52.357 L52.219,55.226 C52.242,55.300 52.216,55.382 52.153,55.427 C52.121,55.449 52.087,55.460 52.049,55.460 C52.012,55.460 51.975,55.449 51.946,55.427 L49.535,53.647 L47.126,55.427 C47.063,55.472 46.977,55.472 46.916,55.427 C46.856,55.382 46.827,55.300 46.853,55.226 L47.780,52.357 L45.363,50.588 C45.300,50.542 45.274,50.460 45.297,50.387 ZM27.524,10.815 L27.524,11.489 L24.297,11.489 L24.297,10.815 L27.524,10.815 ZM31.425,12.999 L31.425,9.881 C31.425,8.920 31.924,8.373 32.840,8.373 C33.753,8.373 34.253,8.920 34.253,9.881 L34.253,12.999 C34.253,13.958 33.753,14.507 32.840,14.507 C31.924,14.507 31.425,13.958 31.425,12.999 ZM33.323,13.061 L33.323,9.821 C33.323,9.393 33.136,9.229 32.840,9.229 C32.542,9.229 32.358,9.393 32.358,9.821 L32.358,13.061 C32.358,13.488 32.542,13.650 32.840,13.650 C33.136,13.650 33.323,13.488 33.323,13.061 ZM38.990,12.785 L38.990,13.711 C38.990,14.002 38.998,14.217 39.090,14.439 L38.143,14.439 C38.091,14.285 38.057,14.191 38.057,13.703 L38.057,12.760 C38.057,12.204 37.870,11.997 37.448,11.997 L37.127,11.997 L37.127,14.439 L36.194,14.439 L36.194,8.441 L37.600,8.441 C38.565,8.441 38.981,8.895 38.981,9.821 L38.981,10.292 C38.981,10.909 38.786,11.312 38.370,11.509 C38.835,11.707 38.990,12.160 38.990,12.785 ZM38.048,9.914 C38.048,9.487 37.904,9.298 37.574,9.298 L37.127,9.298 L37.127,11.140 L37.491,11.140 C37.836,11.140 38.048,10.986 38.048,10.507 L38.048,9.914 ZM41.872,8.441 L41.872,14.439 L40.939,14.439 L40.939,8.441 L41.872,8.441 ZM45.286,11.954 L45.286,11.097 L46.589,11.097 L46.589,12.999 C46.589,13.958 46.115,14.507 45.200,14.507 C44.286,14.507 43.813,13.958 43.813,12.999 L43.813,9.881 C43.813,8.920 44.286,8.373 45.200,8.373 C46.115,8.373 46.589,8.920 46.589,9.881 L46.589,10.463 L45.708,10.463 L45.708,9.821 C45.708,9.393 45.524,9.229 45.225,9.229 C44.930,9.229 44.743,9.393 44.743,9.821 L44.743,13.061 C44.743,13.488 44.930,13.642 45.225,13.642 C45.524,13.642 45.708,13.488 45.708,13.061 L45.708,11.954 L45.286,11.954 ZM49.463,8.441 L49.463,14.439 L48.530,14.439 L48.530,8.441 L49.463,8.441 ZM54.426,8.441 L54.426,14.439 L53.470,14.439 L52.311,10.094 L52.311,14.439 L51.472,14.439 L51.472,8.441 L52.641,8.441 L53.597,12.032 L53.597,8.441 L54.426,8.441 ZM57.206,13.351 L57.045,14.439 L56.189,14.439 L57.139,8.441 L58.500,8.441 L59.450,14.439 L58.509,14.439 L58.348,13.351 L57.206,13.351 ZM57.774,9.504 L57.323,12.538 L58.222,12.538 L57.774,9.504 ZM62.152,8.441 L62.152,13.582 L63.685,13.582 L63.685,14.439 L61.222,14.439 L61.222,8.441 L62.152,8.441 ZM66.676,14.507 C65.764,14.507 65.287,13.958 65.287,12.999 L65.287,12.631 L66.168,12.631 L66.168,13.061 C66.168,13.488 66.355,13.642 66.651,13.642 C66.946,13.642 67.133,13.488 67.133,13.061 C67.133,11.826 65.313,11.593 65.313,9.881 C65.313,8.920 65.781,8.373 66.685,8.373 C67.589,8.373 68.057,8.920 68.057,9.881 L68.057,10.070 L67.176,10.070 L67.176,9.821 C67.176,9.393 67.007,9.229 66.711,9.229 C66.412,9.229 66.246,9.393 66.246,9.821 C66.246,11.054 68.066,11.286 68.066,12.999 C68.066,13.958 67.589,14.507 66.676,14.507 ZM74.927,10.815 L74.927,11.489 L71.703,11.489 L71.703,10.815 L74.927,10.815 ZM93.453,27.827 L87.651,45.293 C87.456,45.870 86.864,46.192 86.328,46.018 C62.649,38.155 36.412,38.155 12.733,46.018 C12.199,46.192 11.604,45.870 11.412,45.295 L5.607,27.827 C5.415,27.247 5.768,26.599 6.399,26.393 C34.236,17.169 64.825,17.169 92.661,26.393 C93.292,26.599 93.646,27.247 93.453,27.827 ZM14.771,34.609 C14.616,34.054 14.042,33.736 13.479,33.900 C12.919,34.060 12.601,34.647 12.761,35.196 C12.925,35.746 13.502,36.056 14.050,35.899 C14.599,35.736 14.920,35.161 14.771,34.609 ZM22.454,35.783 L21.822,33.110 C21.770,32.889 21.638,32.787 21.423,32.753 L18.486,32.509 L18.110,30.912 C18.038,30.611 18.170,30.408 18.457,30.338 L19.005,30.204 C19.316,30.130 19.502,30.257 19.574,30.558 L19.786,31.460 C19.812,31.576 19.898,31.628 20.013,31.602 L21.202,31.314 C21.328,31.283 21.368,31.200 21.342,31.085 L21.052,29.856 C20.794,28.769 20.088,28.328 19.011,28.589 L17.731,28.899 C16.666,29.156 16.218,29.876 16.476,30.964 L17.122,33.697 C17.174,33.916 17.309,34.031 17.533,34.050 L20.455,34.297 L20.823,35.836 C20.895,36.149 20.771,36.338 20.472,36.410 L19.924,36.544 C19.637,36.612 19.430,36.503 19.359,36.191 L19.146,35.299 C19.117,35.173 19.046,35.129 18.919,35.158 L17.728,35.446 C17.616,35.475 17.561,35.549 17.590,35.675 L17.877,36.891 C18.136,37.979 18.854,38.418 19.919,38.159 L21.202,37.848 C22.275,37.590 22.712,36.872 22.454,35.783 ZM29.071,26.794 C29.051,26.678 28.982,26.617 28.841,26.641 L27.650,26.849 C27.532,26.869 27.475,26.952 27.495,27.070 L28.129,30.797 L26.645,31.056 L26.013,27.328 C25.990,27.211 25.910,27.153 25.795,27.173 L24.601,27.381 C24.463,27.405 24.417,27.485 24.434,27.603 L25.967,36.606 C25.990,36.724 26.059,36.784 26.197,36.759 L27.391,36.551 C27.506,36.531 27.563,36.448 27.546,36.332 L26.909,32.604 L28.393,32.346 L29.028,36.073 C29.048,36.190 29.128,36.248 29.246,36.227 L30.437,36.021 C30.578,35.995 30.624,35.916 30.604,35.797 L29.071,26.794 ZM37.683,27.262 C37.566,26.149 36.917,25.620 35.820,25.739 L34.508,25.881 C33.409,26.001 32.886,26.657 33.007,27.770 L33.650,33.830 C33.765,34.943 34.413,35.471 35.513,35.350 L36.825,35.208 C37.922,35.088 38.444,34.435 38.327,33.322 L37.683,27.262 ZM46.109,26.773 C46.064,25.655 45.449,25.087 44.344,25.135 L41.522,25.257 C41.407,25.263 41.338,25.337 41.344,25.456 L41.731,34.590 C41.737,34.709 41.809,34.778 41.930,34.772 L43.150,34.719 C43.279,34.714 43.336,34.640 43.330,34.520 L43.204,31.524 L44.614,31.463 C45.719,31.413 46.279,30.783 46.233,29.676 L46.109,26.773 ZM54.688,25.120 L53.465,25.094 C53.333,25.091 53.275,25.161 53.272,25.280 L53.166,30.301 L53.097,30.298 L51.415,25.206 C51.380,25.097 51.312,25.049 51.208,25.048 L50.043,25.022 C49.928,25.019 49.853,25.088 49.853,25.208 L49.664,34.342 C49.658,34.461 49.727,34.533 49.847,34.536 L51.070,34.563 C51.197,34.566 51.260,34.496 51.260,34.377 L51.363,29.333 L51.424,29.336 L53.117,34.452 C53.149,34.560 53.218,34.609 53.327,34.610 L54.487,34.635 C54.607,34.638 54.676,34.568 54.682,34.449 L54.871,25.315 C54.871,25.196 54.803,25.123 54.688,25.120 ZM62.574,25.847 C62.560,25.725 62.497,25.671 62.390,25.661 L60.762,25.513 C60.656,25.504 60.585,25.544 60.550,25.661 L57.794,34.594 C57.748,34.722 57.800,34.798 57.929,34.809 L59.183,34.924 C59.287,34.934 59.350,34.879 59.385,34.776 L59.855,33.075 L61.940,33.264 L62.112,35.025 C62.126,35.133 62.181,35.197 62.284,35.208 L63.524,35.321 C63.665,35.332 63.720,35.266 63.708,35.135 L62.574,25.847 ZM74.408,27.343 L72.875,27.089 C72.734,27.066 72.642,27.122 72.585,27.257 L70.348,32.892 L70.007,26.829 C69.995,26.684 69.926,26.599 69.788,26.576 L68.255,26.320 C68.106,26.296 68.009,26.364 67.985,26.518 L66.536,35.443 C66.510,35.597 66.579,35.693 66.731,35.717 L67.799,35.894 C67.948,35.919 68.043,35.851 68.069,35.698 L68.927,30.414 L69.008,30.426 L69.295,35.927 C69.306,36.073 69.375,36.157 69.516,36.181 L70.084,36.275 C70.225,36.297 70.317,36.242 70.374,36.105 L72.384,30.987 L72.467,31.001 L71.609,36.287 C71.586,36.439 71.652,36.535 71.804,36.561 L72.883,36.740 C73.032,36.765 73.127,36.697 73.153,36.544 L74.600,27.616 C74.626,27.465 74.560,27.369 74.408,27.343 ZM82.811,29.255 L78.599,28.235 C78.499,28.212 78.413,28.264 78.384,28.380 L76.282,37.270 C76.254,37.385 76.308,37.471 76.412,37.497 L80.620,38.515 C80.758,38.548 80.818,38.490 80.847,38.374 L81.120,37.217 C81.152,37.090 81.117,37.020 80.982,36.987 L78.123,36.294 L78.674,33.957 L80.858,34.485 C80.973,34.513 81.060,34.461 81.088,34.333 L81.358,33.187 C81.390,33.060 81.338,32.973 81.223,32.946 L79.038,32.417 L79.584,30.102 L82.446,30.794 C82.581,30.826 82.647,30.757 82.673,30.642 L82.949,29.484 C82.977,29.368 82.946,29.288 82.811,29.255 ZM85.581,33.900 C85.021,33.736 84.444,34.054 84.292,34.609 C84.140,35.161 84.461,35.736 85.010,35.899 C85.561,36.056 86.135,35.746 86.299,35.196 C86.463,34.647 86.141,34.061 85.581,33.900 ZM61.385,27.660 L61.767,31.864 L60.269,31.727 L61.385,27.660 ZM44.169,29.908 L43.135,29.953 L43.000,26.766 L44.037,26.721 C44.353,26.707 44.513,26.867 44.525,27.177 L44.619,29.411 C44.634,29.711 44.488,29.894 44.169,29.908 ZM36.369,33.714 L35.691,33.787 C35.387,33.820 35.206,33.685 35.171,33.365 L34.592,27.895 C34.560,27.589 34.706,27.404 35.011,27.372 L35.688,27.298 C35.992,27.265 36.174,27.413 36.205,27.721 L36.785,33.188 C36.819,33.508 36.673,33.679 36.369,33.714 ZM46.445,67.596 C47.183,68.685 48.309,69.286 49.612,69.286 C50.918,69.286 52.044,68.685 52.782,67.596 L69.232,43.278 C69.490,43.322 69.746,43.364 70.001,43.409 L53.361,67.999 C52.489,69.289 51.156,70.001 49.612,70.001 C48.068,69.998 46.735,69.289 45.863,67.999 L29.209,43.384 C29.464,43.339 29.720,43.297 29.975,43.254 L46.445,67.596 Z"></path>
												</svg>