<svg xmlns="http://www.w3.org/2000/svg" xmlns:xlink="http://www.w3.org/1999/xlink" width="70px" height="71px">
												<path fill-rule="evenodd" fill="rgb(0, 0, 0)" d="M69.993,41.940 L55.100,41.940 L55.100,46.634 L55.100,46.934 L54.840,47.086 L45.048,52.822 L35.256,58.558 L34.999,58.709 L34.741,58.558 L24.947,52.822 L24.948,52.822 L15.158,47.086 L14.898,46.934 L14.898,46.634 L14.898,41.940 L0.005,41.940 L2.742,35.161 L0.005,28.383 L14.898,28.383 L14.898,23.687 L14.898,23.389 L15.158,23.235 L24.948,17.499 L24.947,17.499 L34.741,11.763 L34.999,11.612 L35.256,11.763 L45.048,17.499 L54.840,23.235 L55.100,23.389 L55.100,23.687 L55.100,28.383 L69.993,28.383 L67.256,35.161 L69.993,41.940 ZM54.070,35.161 L54.070,23.986 L44.535,18.401 L44.534,18.401 L34.999,12.816 L25.462,18.401 L25.461,18.401 L15.928,23.986 L15.928,35.161 L15.928,46.335 L25.461,51.920 L25.462,51.920 L34.999,57.505 L44.534,51.920 L44.535,51.920 L54.070,46.335 L54.070,35.161 ZM35.126,56.577 L34.999,56.654 L34.869,56.577 L25.826,51.280 L16.781,45.983 L16.654,45.906 L16.654,45.756 L16.654,35.161 L16.654,24.565 L16.654,24.415 L16.781,24.340 L25.826,19.041 L34.869,13.743 L34.999,13.667 L35.126,13.743 L44.171,19.041 L53.216,24.340 L53.344,24.415 L53.344,24.565 L53.344,35.161 L53.344,45.756 L53.344,45.906 L53.216,45.983 L44.171,51.280 L35.126,56.577 ZM52.829,35.161 L52.829,24.715 L43.914,19.492 L34.999,14.270 L26.084,19.492 L17.169,24.715 L17.169,35.161 L17.169,45.606 L26.084,50.829 L34.999,56.051 L43.914,50.829 L52.829,45.606 L52.829,35.161 ZM42.920,40.796 L49.106,40.796 L49.106,41.153 L42.920,41.153 L42.920,40.796 ZM48.272,36.514 L48.272,37.586 C48.272,38.970 47.143,39.494 45.975,39.494 C44.795,39.494 43.775,38.907 43.775,37.573 L43.775,36.887 L45.163,36.887 L45.163,37.586 C45.163,38.334 45.483,38.646 46.036,38.646 C46.688,38.646 46.970,38.210 46.970,37.586 L46.970,36.526 C46.970,34.893 43.861,35.554 43.861,33.372 L43.861,32.312 C43.861,31.002 44.807,30.517 45.802,30.517 C46.294,30.517 46.797,30.616 47.204,31.078 L47.252,31.078 L47.350,30.604 L48.186,30.604 C48.186,31.376 48.186,32.163 48.186,32.948 L46.920,32.948 L46.920,32.312 C46.920,31.688 46.589,31.353 46.012,31.353 C45.434,31.353 45.138,31.714 45.138,32.312 L45.138,33.372 C45.138,34.880 48.272,34.207 48.272,36.514 ZM42.920,29.168 L49.106,29.168 L49.106,29.526 L42.920,29.526 L42.920,29.168 ZM36.050,44.551 L37.284,43.867 L37.284,36.005 L32.736,36.005 L32.736,43.867 L33.999,44.551 L33.999,45.376 L28.636,45.376 L28.636,44.551 L29.901,43.867 L29.901,26.975 L28.834,26.234 L28.834,25.408 L33.803,25.408 L33.803,26.234 L32.736,26.975 L32.736,34.381 L37.284,34.381 L37.284,26.975 L36.217,26.234 L36.217,25.408 L41.186,25.408 L41.186,26.234 L40.121,26.975 L40.121,43.867 L41.384,44.551 L41.384,45.376 L36.050,45.376 L36.050,44.551 ZM20.891,40.796 L27.077,40.796 L27.077,41.153 L20.891,41.153 L20.891,40.796 ZM26.243,36.514 L26.243,37.586 C26.243,38.970 25.112,39.494 23.945,39.494 C22.766,39.494 21.746,38.907 21.746,37.573 L21.746,36.887 L23.134,36.887 L23.134,37.586 C23.134,38.334 23.453,38.646 24.006,38.646 C24.657,38.646 24.940,38.210 24.940,37.586 L24.940,36.526 C24.940,34.893 21.832,35.554 21.832,33.372 L21.832,32.312 C21.832,31.002 22.777,30.517 23.772,30.517 C24.264,30.517 24.769,30.616 25.174,31.078 L25.224,31.078 L25.322,30.604 L26.157,30.604 C26.157,31.376 26.157,32.163 26.157,32.948 L24.891,32.948 L24.891,32.312 C24.891,31.688 24.559,31.353 23.981,31.353 C23.404,31.353 23.109,31.714 23.109,32.312 L23.109,33.372 C23.109,34.880 26.243,34.207 26.243,36.514 ZM20.891,29.168 L27.077,29.168 L27.077,29.526 L20.891,29.526 L20.891,29.168 ZM63.486,19.860 C62.822,21.198 62.115,22.503 61.368,23.773 C61.356,23.815 61.333,23.854 61.295,23.887 C61.205,23.969 61.075,23.970 61.007,23.892 L61.002,23.886 C59.566,22.245 57.978,20.741 56.269,19.398 C56.203,19.344 56.184,19.245 56.224,19.155 C56.233,19.135 56.244,19.116 56.258,19.099 L57.740,17.137 C54.108,14.312 49.964,12.171 45.578,10.864 C41.192,9.555 36.564,9.081 31.996,9.449 C24.864,10.005 17.930,12.712 12.258,17.137 L13.738,19.099 C13.751,19.116 13.763,19.135 13.773,19.155 C13.813,19.245 13.794,19.344 13.728,19.398 C12.019,20.741 10.431,22.245 8.996,23.885 L8.991,23.892 C8.922,23.970 8.793,23.969 8.701,23.887 C8.665,23.854 8.640,23.815 8.628,23.773 C7.882,22.502 7.176,21.198 6.512,19.860 C5.146,19.250 3.748,18.684 2.323,18.166 C2.255,18.142 2.206,18.084 2.190,18.011 C2.175,17.938 2.196,17.860 2.248,17.801 C3.012,16.929 3.809,16.087 4.638,15.279 L2.946,13.492 C2.862,13.405 2.875,13.255 2.974,13.158 C6.786,9.476 11.219,6.451 16.032,4.265 C20.844,2.078 26.034,0.735 31.282,0.319 C37.755,-0.205 44.356,0.646 50.503,2.860 C56.651,5.063 62.314,8.605 67.024,13.158 C67.123,13.255 67.135,13.405 67.052,13.492 L65.358,15.279 C66.187,16.087 66.985,16.930 67.750,17.801 C67.800,17.860 67.822,17.938 67.806,18.011 C67.792,18.084 67.742,18.142 67.674,18.166 C66.249,18.684 64.852,19.250 63.486,19.860 ZM2.799,17.842 C4.144,18.353 5.460,18.903 6.751,19.497 C6.799,19.518 6.838,19.557 6.861,19.605 C7.484,20.895 8.150,22.156 8.849,23.385 C10.097,21.982 11.455,20.679 12.904,19.493 C11.714,19.606 10.506,19.787 9.290,20.040 C9.218,20.054 9.140,20.029 9.087,19.972 L8.899,19.775 L4.942,15.599 C4.201,16.319 3.488,17.070 2.799,17.842 ZM66.542,13.308 C61.883,8.851 56.296,5.389 50.241,3.237 C44.186,1.073 37.689,0.246 31.317,0.761 C26.158,1.171 21.058,2.483 16.324,4.620 C11.589,6.754 7.221,9.707 3.455,13.308 L5.129,15.111 L9.043,19.329 C9.933,18.478 10.863,17.672 11.831,16.912 C17.598,12.360 24.679,9.576 31.962,9.007 C36.616,8.632 41.333,9.121 45.798,10.468 C50.265,11.813 54.481,14.013 58.166,16.912 C59.134,17.672 60.063,18.478 60.955,19.329 L64.867,15.111 L66.542,13.308 ZM65.055,15.600 L61.098,19.775 L60.910,19.972 C60.855,20.029 60.779,20.054 60.706,20.040 C59.490,19.787 58.283,19.606 57.093,19.493 C58.541,20.679 59.899,21.982 61.146,23.385 C61.848,22.156 62.512,20.895 63.136,19.605 C63.160,19.557 63.198,19.518 63.245,19.497 C64.538,18.903 65.854,18.353 67.199,17.842 C66.509,17.070 65.797,16.319 65.055,15.600 ZM61.144,13.471 L61.281,13.294 C61.841,13.742 62.392,14.202 62.929,14.677 L62.785,14.846 C62.250,14.373 61.701,13.914 61.144,13.471 ZM60.933,11.376 C60.127,12.556 59.326,13.731 58.520,14.911 L58.055,14.583 C57.925,14.492 57.907,14.366 57.949,14.233 L59.167,10.540 L59.146,10.534 L58.837,11.128 C58.293,11.924 57.746,12.726 57.203,13.521 L57.331,13.824 L57.216,13.995 C56.951,13.809 56.636,13.588 56.372,13.401 L56.488,13.231 L56.813,13.248 C57.548,12.172 58.286,11.091 59.020,10.015 L58.913,9.727 L59.021,9.569 C59.281,9.751 59.405,9.838 59.659,10.017 C59.898,10.184 59.926,10.237 59.842,10.487 L59.203,12.572 L58.712,13.819 L58.723,13.828 C58.915,13.547 59.144,13.164 59.336,12.884 L60.549,11.106 L60.442,10.818 L60.557,10.648 C60.822,10.835 61.088,11.021 61.353,11.207 L61.237,11.377 L60.933,11.376 ZM55.249,8.830 L55.409,8.515 C55.587,8.165 55.384,7.894 55.097,7.744 C54.805,7.591 54.468,7.655 54.202,8.177 C53.858,8.855 53.511,9.538 53.167,10.214 C52.916,10.708 53.009,11.034 53.361,11.218 C53.764,11.430 54.044,11.230 54.231,10.862 L54.460,10.411 L54.217,10.027 L54.308,9.850 L55.268,10.352 C54.960,10.957 54.652,11.563 54.344,12.169 L53.963,11.969 L54.053,11.634 C53.784,11.800 53.442,11.757 53.173,11.616 C52.481,11.255 52.174,10.635 52.552,9.893 C52.896,9.216 53.243,8.533 53.588,7.856 C53.980,7.084 54.740,7.061 55.291,7.349 C55.542,7.480 55.790,7.677 55.866,7.965 L55.884,7.974 L56.042,7.780 L56.446,7.991 L55.857,9.149 L55.249,8.830 ZM51.052,5.845 C50.588,7.068 50.128,8.285 49.664,9.507 L49.864,9.799 L49.796,9.982 C49.444,9.845 48.984,9.665 48.627,9.526 L48.695,9.344 L49.043,9.265 C49.506,8.043 49.967,6.826 50.430,5.603 L50.259,5.350 L50.327,5.169 L51.416,5.593 L51.347,5.774 L51.052,5.845 ZM46.576,5.253 L46.663,4.924 C46.748,4.602 46.622,4.381 46.322,4.299 C46.025,4.219 45.821,4.364 45.741,4.675 L45.596,5.223 C45.391,6.003 47.105,6.094 46.790,7.289 L46.644,7.844 C46.455,8.561 45.799,8.672 45.195,8.509 C44.584,8.344 44.136,7.898 44.318,7.207 L44.410,6.852 L45.130,7.046 L45.034,7.408 C44.933,7.794 45.056,8.001 45.341,8.079 C45.680,8.170 45.885,7.984 45.970,7.661 L46.114,7.112 C46.337,6.267 44.637,6.174 44.935,5.044 L45.079,4.495 C45.258,3.817 45.813,3.699 46.328,3.838 C46.582,3.907 46.831,4.030 46.977,4.325 L47.003,4.332 L47.119,4.100 L47.551,4.218 C47.445,4.617 47.339,5.025 47.231,5.431 L46.576,5.253 ZM41.950,4.013 L41.858,3.338 L40.971,3.211 C40.891,3.786 40.811,4.368 40.729,4.950 L41.354,5.039 L41.575,4.701 L41.770,4.729 C41.725,5.052 41.659,5.522 41.614,5.846 L41.419,5.818 L41.299,5.443 L40.672,5.353 C40.605,5.843 40.537,6.326 40.468,6.815 C40.454,6.921 40.419,6.977 40.303,7.001 L40.298,7.033 C40.670,7.087 41.035,7.140 41.406,7.193 L41.717,6.590 L42.004,6.632 L41.859,7.669 C41.044,7.552 40.229,7.435 39.408,7.317 L39.435,7.126 L39.755,6.968 C39.937,5.666 40.119,4.363 40.300,3.067 L40.077,2.860 L40.100,2.687 C40.896,2.802 41.626,2.907 42.421,3.021 L42.276,4.060 L41.950,4.013 ZM35.704,7.097 L34.283,7.070 L34.286,6.876 L34.580,6.682 L34.649,2.788 L34.403,2.583 L34.406,2.390 L35.788,2.415 C36.579,2.429 37.106,2.773 37.091,3.649 L37.049,5.892 C37.035,6.720 36.475,7.111 35.704,7.097 ZM35.781,2.822 L35.340,2.814 L35.276,6.421 C35.273,6.533 35.240,6.593 35.126,6.624 L35.133,6.665 L35.713,6.676 C36.200,6.678 36.357,6.327 36.365,5.879 L36.405,3.635 C36.414,3.194 36.268,2.838 35.781,2.822 ZM62.221,15.504 L62.076,15.673 C61.555,15.213 61.021,14.766 60.477,14.333 L60.613,14.157 C61.160,14.593 61.696,15.041 62.221,15.504 ZM60.946,13.725 C61.501,14.166 62.044,14.622 62.576,15.092 L62.431,15.260 C61.902,14.793 61.361,14.341 60.810,13.901 L60.946,13.725 ZM30.596,7.401 C29.797,7.492 29.232,7.051 29.149,6.308 L28.896,3.996 C28.814,3.253 29.270,2.697 30.069,2.606 C30.875,2.517 31.438,2.949 31.521,3.700 L31.775,6.012 C31.858,6.761 31.401,7.311 30.596,7.401 ZM30.846,3.777 C30.799,3.338 30.556,3.002 30.118,3.051 C29.686,3.100 29.519,3.395 29.577,3.919 L29.830,6.231 C29.888,6.749 30.115,7.006 30.546,6.958 C30.986,6.907 31.148,6.519 31.100,6.087 L30.846,3.777 ZM25.953,7.509 L25.441,6.755 C25.228,6.436 25.092,6.374 24.714,6.466 C24.812,6.876 24.971,7.538 25.070,7.953 L25.399,8.079 L25.444,8.267 C25.072,8.358 24.598,8.474 24.227,8.566 L24.183,8.377 L24.418,8.113 C24.116,6.854 23.808,5.562 23.507,4.303 L23.230,4.193 L23.185,4.005 L24.484,3.684 C25.174,3.515 25.801,3.642 25.990,4.435 L26.131,5.025 C26.265,5.583 26.032,5.971 25.637,6.157 C25.854,6.214 25.966,6.317 26.084,6.501 L26.585,7.265 C26.691,7.424 26.866,7.648 27.060,7.552 L27.121,7.807 C27.008,7.903 26.814,7.971 26.675,8.006 C26.271,8.104 26.163,7.822 25.953,7.509 ZM25.466,5.189 L25.325,4.598 C25.226,4.183 25.021,3.979 24.580,4.087 L24.163,4.190 C24.333,4.898 24.450,5.385 24.618,6.092 L25.027,5.991 C25.456,5.886 25.565,5.604 25.466,5.189 ZM20.249,9.716 L20.447,9.418 C20.001,8.225 19.556,7.032 19.109,5.838 L18.647,6.016 L18.719,6.810 L18.424,6.924 L18.032,5.803 L20.539,4.838 L20.979,5.941 L20.683,6.055 L20.206,5.417 L19.756,5.590 C20.202,6.783 20.648,7.977 21.095,9.170 L21.437,9.260 L21.518,9.472 C21.160,9.609 20.680,9.795 20.329,9.929 L20.249,9.716 ZM15.441,12.074 L15.612,11.756 C15.011,10.591 14.408,9.424 13.809,8.263 L13.508,8.227 L13.429,8.074 C14.141,7.695 14.794,7.349 15.506,6.970 L15.986,7.899 L15.694,8.055 L15.231,7.561 L14.438,7.983 C14.704,8.497 14.972,9.019 15.241,9.540 L15.802,9.242 L15.785,8.835 L15.960,8.743 C16.110,9.033 16.328,9.453 16.476,9.743 L16.301,9.837 L15.988,9.603 L15.428,9.900 C15.654,10.339 15.877,10.770 16.103,11.209 C16.153,11.304 16.156,11.370 16.076,11.457 L16.091,11.487 C16.423,11.310 16.751,11.137 17.083,10.960 L16.987,10.286 L17.245,10.149 L17.724,11.080 C16.994,11.467 16.266,11.854 15.530,12.245 L15.441,12.074 ZM13.556,13.076 L13.703,13.290 C13.632,13.420 13.475,13.554 13.357,13.638 C13.016,13.878 12.814,13.654 12.508,13.440 L11.762,12.924 C11.452,12.703 11.303,12.694 10.984,12.919 C11.219,13.264 11.602,13.824 11.842,14.176 L12.192,14.173 L12.300,14.333 C11.987,14.553 11.586,14.835 11.272,15.055 L11.163,14.895 L11.290,14.564 C10.563,13.499 9.816,12.406 9.089,11.341 L8.792,11.340 L8.683,11.180 L9.781,10.408 C10.366,9.998 10.995,9.888 11.453,10.557 L11.794,11.057 C12.116,11.529 12.037,11.976 11.733,12.293 C11.955,12.268 12.097,12.322 12.273,12.451 L13.010,12.980 C13.166,13.091 13.410,13.236 13.556,13.076 ZM11.232,11.453 L10.890,10.953 C10.650,10.603 10.387,10.486 10.014,10.749 L9.662,10.996 C10.070,11.594 10.351,12.006 10.760,12.605 L11.107,12.360 C11.469,12.106 11.471,11.804 11.232,11.453 ZM8.853,13.471 C8.294,13.914 7.748,14.373 7.212,14.846 L7.067,14.677 C7.606,14.202 8.156,13.742 8.717,13.294 L8.853,13.471 ZM9.186,13.901 C8.636,14.341 8.096,14.793 7.566,15.260 L7.422,15.092 C7.954,14.622 8.497,14.166 9.050,13.725 L9.186,13.901 ZM9.521,14.331 C8.976,14.766 8.443,15.213 7.921,15.673 L7.776,15.504 C8.301,15.041 8.838,14.593 9.384,14.157 L9.521,14.331 ZM6.512,50.461 C7.176,49.123 7.882,47.820 8.628,46.549 C8.640,46.507 8.665,46.467 8.701,46.434 C8.793,46.353 8.922,46.352 8.991,46.430 L8.995,46.436 C10.431,48.076 12.019,49.580 13.728,50.924 C13.794,50.977 13.813,51.076 13.773,51.166 C13.763,51.186 13.751,51.206 13.738,51.222 L12.258,53.184 C15.890,56.009 20.033,58.150 24.420,59.457 C28.804,60.766 33.434,61.241 38.000,60.873 C45.134,60.316 52.068,57.611 57.740,53.184 L56.258,51.222 C56.245,51.206 56.233,51.186 56.224,51.166 C56.184,51.076 56.202,50.978 56.269,50.924 C57.978,49.580 59.566,48.076 61.002,46.436 L61.007,46.430 C61.075,46.352 61.205,46.353 61.295,46.434 C61.333,46.467 61.356,46.507 61.368,46.549 C62.115,47.820 62.822,49.123 63.486,50.461 C64.852,51.071 66.249,51.637 67.674,52.155 C67.742,52.179 67.792,52.237 67.806,52.310 C67.822,52.383 67.800,52.461 67.750,52.520 C66.985,53.393 66.187,54.234 65.358,55.042 L67.052,56.829 C67.135,56.916 67.123,57.066 67.024,57.165 C63.212,60.847 58.778,63.871 53.965,66.056 C49.154,68.243 43.964,69.586 38.714,70.004 C32.242,70.526 25.640,69.675 19.494,67.462 C13.347,65.258 7.682,61.716 2.974,57.165 C2.874,57.066 2.860,56.916 2.946,56.829 L4.638,55.042 C3.808,54.234 3.012,53.393 2.248,52.520 C2.196,52.461 2.175,52.383 2.190,52.310 C2.206,52.237 2.255,52.179 2.323,52.155 C3.748,51.637 5.146,51.071 6.512,50.461 ZM67.199,52.479 C65.854,51.968 64.536,51.418 63.245,50.824 C63.198,50.803 63.160,50.765 63.136,50.716 C62.512,49.426 61.848,48.165 61.146,46.937 C59.899,48.339 58.541,49.642 57.093,50.828 C58.283,50.716 59.490,50.534 60.706,50.282 C60.779,50.267 60.855,50.292 60.910,50.350 L61.098,50.547 L65.055,54.722 C65.797,54.002 66.509,53.251 67.199,52.479 ZM3.455,57.015 C8.114,61.470 13.702,64.932 19.757,67.085 C25.811,69.248 32.308,70.076 38.680,69.560 C43.838,69.150 48.939,67.838 53.673,65.702 C58.409,63.567 62.777,60.614 66.542,57.015 L64.867,55.210 L60.955,50.992 C60.063,51.843 59.134,52.650 58.166,53.409 C52.399,57.961 45.318,60.746 38.036,61.316 C33.382,61.690 28.665,61.201 24.199,59.853 C19.731,58.510 15.517,56.309 11.830,53.409 C10.863,52.650 9.933,51.843 9.043,50.992 L5.129,55.210 L3.455,57.015 ZM4.942,54.722 L8.899,50.547 L9.086,50.350 C9.140,50.292 9.218,50.267 9.290,50.282 C10.506,50.534 11.714,50.716 12.904,50.828 C11.455,49.642 10.097,48.339 8.849,46.936 C8.149,48.165 7.484,49.426 6.861,50.716 C6.838,50.765 6.799,50.803 6.751,50.824 C5.460,51.418 4.144,51.968 2.799,52.479 C3.487,53.251 4.201,54.002 4.942,54.722 ZM8.853,56.851 L8.717,57.027 C8.156,56.580 7.606,56.119 7.067,55.644 L7.212,55.476 C7.748,55.948 8.294,56.407 8.853,56.851 ZM7.566,55.062 C8.096,55.528 8.634,55.981 9.186,56.420 L9.050,56.596 C8.497,56.155 7.954,55.699 7.422,55.231 L7.566,55.062 ZM7.921,54.648 C8.443,55.108 8.976,55.556 9.520,55.990 L9.384,56.165 C8.838,55.728 8.301,55.280 7.776,54.817 L7.921,54.648 ZM11.282,57.186 C11.557,56.773 12.025,56.690 12.469,56.995 C12.916,57.301 13.019,57.769 12.741,58.185 L11.887,59.469 C11.609,59.886 11.143,59.965 10.695,59.659 C10.252,59.355 10.152,58.884 10.427,58.470 L11.282,57.186 ZM10.861,59.412 C11.104,59.578 11.352,59.452 11.511,59.213 L12.366,57.928 C12.528,57.685 12.548,57.409 12.305,57.242 C12.064,57.077 11.855,57.154 11.660,57.445 L10.806,58.729 C10.614,59.017 10.620,59.247 10.861,59.412 ZM13.380,61.006 C13.794,60.250 14.218,59.474 14.632,58.719 L14.545,58.538 L14.607,58.424 L15.387,58.864 C15.802,59.097 16.052,59.448 15.792,59.922 L15.598,60.277 C15.415,60.613 15.128,60.696 14.850,60.606 C14.932,60.733 14.941,60.835 14.916,60.980 L14.822,61.584 C14.803,61.711 14.789,61.902 14.927,61.944 L14.845,62.096 C14.746,62.091 14.621,62.036 14.536,61.988 C14.294,61.853 14.367,61.663 14.404,61.414 L14.488,60.810 C14.527,60.556 14.486,60.462 14.261,60.335 C14.126,60.579 13.908,60.977 13.773,61.227 L13.877,61.439 L13.815,61.552 C13.593,61.426 13.308,61.266 13.085,61.140 L13.147,61.028 L13.380,61.006 ZM14.626,60.245 C14.883,60.390 15.062,60.301 15.199,60.052 L15.393,59.697 C15.529,59.448 15.519,59.255 15.255,59.105 L15.005,58.964 C14.772,59.389 14.613,59.681 14.380,60.106 L14.626,60.245 ZM16.627,62.723 C16.988,61.932 17.348,61.144 17.710,60.353 L17.607,60.177 L17.660,60.060 L18.365,60.391 L18.312,60.509 L18.112,60.542 C17.750,61.334 17.390,62.121 17.028,62.913 L17.148,63.116 L17.094,63.233 C16.868,63.126 16.569,62.986 16.338,62.877 L16.391,62.759 L16.627,62.723 ZM19.651,61.825 C19.853,61.283 20.355,61.208 20.741,61.356 C20.917,61.424 21.097,61.535 21.169,61.721 L21.181,61.726 L21.272,61.583 L21.555,61.692 L21.253,62.505 L20.825,62.341 L20.908,62.120 C20.999,61.874 20.844,61.710 20.643,61.633 C20.438,61.554 20.219,61.622 20.083,61.989 C19.906,62.465 19.727,62.944 19.551,63.420 C19.421,63.766 19.509,63.975 19.755,64.070 C20.038,64.178 20.208,64.024 20.304,63.766 L20.422,63.449 L20.232,63.215 L20.279,63.089 L20.953,63.347 C20.795,63.772 20.636,64.198 20.478,64.622 L20.211,64.521 L20.245,64.290 C20.078,64.422 19.849,64.420 19.660,64.348 C19.175,64.162 18.925,63.776 19.119,63.254 C19.296,62.780 19.474,62.300 19.651,61.825 ZM22.520,65.016 C22.764,64.179 23.007,63.346 23.251,62.509 L23.125,62.349 L23.160,62.226 L23.905,62.449 L23.869,62.573 L23.677,62.636 C23.432,63.474 23.190,64.306 22.945,65.143 L23.093,65.327 L23.056,65.451 C22.818,65.379 22.501,65.284 22.257,65.210 L22.293,65.087 L22.520,65.016 ZM25.046,65.718 C25.228,64.865 25.413,64.006 25.595,63.153 L25.456,63.004 L25.484,62.877 C25.689,62.922 25.788,62.944 25.989,62.988 C26.179,63.030 26.209,63.055 26.221,63.232 L26.351,64.682 L26.362,65.579 L26.370,65.580 C26.417,65.359 26.463,65.064 26.511,64.841 L26.813,63.430 L26.674,63.281 L26.703,63.145 C26.914,63.192 27.124,63.239 27.334,63.284 L27.305,63.420 L27.117,63.497 C26.917,64.433 26.717,65.366 26.516,66.302 L26.148,66.221 C26.045,66.198 26.002,66.125 25.995,66.032 L25.817,63.438 L25.804,63.440 L25.763,63.886 C25.626,64.518 25.491,65.155 25.355,65.785 L25.512,65.939 L25.482,66.073 C25.272,66.028 25.023,65.973 24.812,65.927 L24.842,65.792 L25.046,65.718 ZM28.497,66.427 C28.832,65.541 29.212,64.503 29.550,63.620 L29.999,63.680 L30.334,66.654 L30.478,66.772 L30.461,66.909 L29.685,66.807 L29.700,66.692 L29.868,66.615 L29.804,65.974 L29.003,65.868 L28.780,66.469 L28.927,66.568 L28.908,66.706 L28.313,66.627 L28.329,66.491 L28.497,66.427 ZM29.776,65.713 L29.626,64.179 L29.621,64.179 L29.091,65.624 L29.776,65.713 ZM32.299,66.790 C32.340,65.918 32.381,65.050 32.423,64.179 L32.262,64.054 L32.268,63.925 L33.057,63.964 L33.051,64.093 L32.879,64.200 C32.840,65.015 32.801,65.829 32.763,66.644 C32.758,66.715 32.739,66.754 32.664,66.777 L32.663,66.799 C32.912,66.812 33.114,66.821 33.365,66.833 L33.534,66.414 L33.727,66.423 L33.693,67.121 C33.141,67.095 32.637,67.070 32.088,67.043 L32.094,66.914 L32.299,66.790 ZM38.265,63.847 C38.454,63.831 38.654,63.860 38.797,63.997 L38.810,63.994 L38.833,63.824 L39.134,63.799 L39.202,64.669 L38.747,64.706 L38.740,64.621 C38.719,64.342 38.617,64.118 38.302,64.139 C38.096,64.156 37.919,64.313 37.951,64.704 C37.965,64.891 38.057,66.058 38.071,66.245 C38.101,66.613 38.258,66.766 38.521,66.745 C38.841,66.718 38.917,66.524 38.893,66.209 L38.880,66.044 L39.335,66.009 L39.348,66.176 C39.391,66.727 39.038,66.996 38.549,67.037 C38.059,67.077 37.661,66.845 37.616,66.282 C37.602,66.095 37.510,64.927 37.495,64.741 C37.454,64.212 37.750,63.889 38.265,63.847 ZM41.663,63.405 C42.196,63.316 42.586,63.584 42.668,64.081 L42.919,65.609 C42.999,66.106 42.716,66.488 42.183,66.577 C41.654,66.667 41.262,66.395 41.182,65.902 L40.931,64.373 C40.851,63.882 41.135,63.495 41.663,63.405 ZM41.632,65.826 C41.689,66.169 41.848,66.331 42.134,66.283 C42.425,66.234 42.519,65.970 42.472,65.685 L42.222,64.156 C42.174,63.866 42.001,63.651 41.711,63.700 C41.425,63.749 41.325,63.951 41.381,64.298 L41.632,65.826 ZM45.070,62.941 C45.448,63.749 45.690,64.293 46.009,65.110 L46.017,65.108 L45.800,62.732 C45.793,62.562 45.840,62.518 46.003,62.479 C46.244,62.414 46.376,62.374 46.618,62.308 L46.650,62.433 L46.514,62.590 C46.735,63.435 46.953,64.275 47.175,65.120 L47.395,65.198 L47.428,65.324 C47.186,65.389 46.859,65.476 46.618,65.542 L46.585,65.416 L46.737,65.238 C46.561,64.560 46.384,63.884 46.207,63.208 L46.107,62.774 L46.091,62.778 L46.321,65.576 L45.969,65.670 C45.879,65.694 45.827,65.667 45.793,65.589 C45.429,64.769 45.081,63.995 44.701,63.184 L44.680,63.190 L44.846,63.740 C45.011,64.370 45.174,64.994 45.338,65.622 L45.546,65.687 L45.580,65.822 C45.372,65.877 45.131,65.941 44.923,65.998 L44.888,65.865 L45.037,65.704 C44.815,64.860 44.595,64.011 44.374,63.167 L44.174,63.100 L44.141,62.975 C44.367,62.915 44.540,62.867 44.766,62.807 C44.923,62.764 44.988,62.788 45.070,62.941 ZM50.053,61.865 L50.242,62.388 C50.432,62.909 50.116,63.184 49.662,63.353 L49.407,63.447 C49.504,63.716 49.607,63.999 49.705,64.268 L49.930,64.325 L49.974,64.446 C49.740,64.534 49.430,64.649 49.192,64.738 L49.148,64.617 L49.288,64.422 C48.994,63.612 48.693,62.781 48.400,61.970 L48.204,61.920 L48.159,61.799 L48.995,61.486 C49.440,61.320 49.869,61.355 50.053,61.865 ZM49.319,63.205 L49.583,63.107 C49.858,63.005 49.911,62.814 49.814,62.547 L49.625,62.024 C49.528,61.757 49.373,61.639 49.093,61.744 L48.825,61.843 C48.991,62.299 49.156,62.755 49.319,63.205 ZM52.108,60.147 L53.947,62.485 L54.131,62.506 L54.188,62.632 L53.479,62.963 L53.430,62.859 L53.533,62.702 L53.143,62.193 L52.409,62.536 L52.535,63.165 L52.712,63.169 L52.769,63.295 L52.222,63.551 L52.165,63.426 L52.274,63.282 C52.093,62.350 51.872,61.266 51.697,60.338 L52.108,60.147 ZM52.356,62.282 L52.983,61.988 L52.053,60.770 L52.049,60.772 L52.356,62.282 ZM54.616,58.868 C54.784,58.771 54.823,58.769 54.947,58.892 L55.998,59.884 L56.594,60.542 L56.602,60.539 C56.491,60.341 56.332,60.090 56.221,59.894 L55.517,58.639 L55.315,58.623 L55.249,58.503 C55.436,58.395 55.623,58.287 55.809,58.179 L55.877,58.299 L55.788,58.484 C56.255,59.316 56.719,60.143 57.185,60.975 L56.857,61.165 C56.766,61.217 56.686,61.191 56.620,61.127 L54.784,59.319 L54.774,59.330 L55.036,59.691 C55.351,60.251 55.667,60.817 55.982,61.378 L56.199,61.385 L56.267,61.505 C56.080,61.613 55.859,61.741 55.672,61.849 L55.604,61.728 L55.708,61.536 C55.282,60.777 54.856,60.016 54.430,59.257 L54.228,59.240 L54.165,59.129 C54.349,59.022 54.436,58.971 54.616,58.868 ZM57.175,57.518 L57.049,57.552 L56.977,57.445 L57.303,57.220 C57.433,57.129 57.487,57.146 57.607,57.230 L58.568,57.898 L58.317,56.769 L58.133,56.795 L58.063,56.692 L58.584,56.330 L58.652,56.433 L58.566,56.596 L58.921,58.140 L59.557,59.083 L59.793,59.087 L59.874,59.208 C59.664,59.353 59.383,59.548 59.176,59.692 L59.095,59.571 L59.177,59.347 L58.573,58.450 L57.175,57.518 ZM62.221,54.817 C61.696,55.280 61.160,55.728 60.613,56.165 L60.477,55.990 C61.021,55.556 61.555,55.108 62.077,54.648 L62.221,54.817 ZM62.576,55.231 C62.044,55.699 61.501,56.155 60.946,56.596 L60.810,56.420 C61.361,55.980 61.902,55.528 62.432,55.062 L62.576,55.231 ZM62.930,55.644 C62.392,56.119 61.841,56.580 61.281,57.027 L61.144,56.851 C61.701,56.407 62.250,55.948 62.785,55.475 L62.930,55.644 Z"></path>
												</svg>